<?xml version="1.0" encoding="UTF-8"?>
<svg version="1.1" xmlns="http://www.w3.org/2000/svg" width="668" height="299">
<path d="M0 0 C4.29 0 8.58 0 13 0 C13.66202926 3.97217558 14.12297595 7.06170297 14.09765625 10.9609375 C14.09515869 11.75806152 14.09266113 12.55518555 14.09008789 13.37646484 C14.08098389 14.36598145 14.07187988 15.35549805 14.0625 16.375 C14.0315625 21.139375 14.0315625 21.139375 14 26 C24.395 25.505 24.395 25.505 35 25 C35.33 16.75 35.66 8.5 36 0 C39.96 0 43.92 0 48 0 C49 1 49 1 49.12025452 3.51197815 C49.11803391 4.62894577 49.11581329 5.74591339 49.11352539 6.89672852 C49.11344986 8.15796036 49.11337433 9.4191922 49.11329651 10.71864319 C49.1081891 12.10539794 49.10297309 13.49215229 49.09765625 14.87890625 C49.09579201 16.28995209 49.09436814 17.70099857 49.09336853 19.11204529 C49.08954379 22.83240535 49.0797139 26.5527266 49.06866455 30.27307129 C49.05844948 34.06680781 49.05387071 37.86055058 49.04882812 41.65429688 C49.03809158 49.10288436 49.02049515 56.5514318 49 64 C44.71 64 40.42 64 36 64 C36 55.42 36 46.84 36 38 C28.74 38 21.48 38 14 38 C14.01160156 39.79308594 14.02320313 41.58617187 14.03515625 43.43359375 C14.04453229 45.76822813 14.05363269 48.10286363 14.0625 50.4375 C14.07087891 51.62150391 14.07925781 52.80550781 14.08789062 54.02539062 C14.09111328 55.15009766 14.09433594 56.27480469 14.09765625 57.43359375 C14.10289307 58.47572021 14.10812988 59.51784668 14.11352539 60.59155273 C14 63 14 63 13 64 C11.00200428 64.09873816 9.00042842 64.12971799 7 64.125 C5.906875 64.12757813 4.81375 64.13015625 3.6875 64.1328125 C1 64 1 64 0 63 C-0.0940067 61.03630847 -0.11743381 59.06920801 -0.11352539 57.10327148 C-0.11344986 55.84203964 -0.11337433 54.5808078 -0.11329651 53.28135681 C-0.1081891 51.89460206 -0.10297309 50.50784771 -0.09765625 49.12109375 C-0.09579201 47.71004791 -0.09436814 46.29900143 -0.09336853 44.88795471 C-0.08954379 41.16759465 -0.0797139 37.4472734 -0.06866455 33.72692871 C-0.05844948 29.93319219 -0.05387071 26.13944942 -0.04882812 22.34570312 C-0.03809158 14.89711564 -0.02049515 7.4485682 0 0 Z " fill="#6B95F7" transform="translate(604,131)"/>
<path d="M0 0 C0.7591548 7.2732263 1.1691657 14.46591405 1.203125 21.77734375 C1.20882507 22.75111465 1.21452515 23.72488556 1.22039795 24.72816467 C1.22976068 26.76415954 1.23634669 28.80016896 1.24023438 30.83618164 C1.25005258 33.95419905 1.28120152 37.07158663 1.3125 40.18945312 C1.3190211 42.17707946 1.32427506 44.16471045 1.328125 46.15234375 C1.3404718 47.08151108 1.3528186 48.01067841 1.36553955 48.96800232 C1.35297564 52.58980272 1.33782836 55.27562265 -0.20532227 58.58447266 C-2.58955395 60.46500255 -4.02088156 60.50233717 -7.04296875 60.49609375 C-8.53086914 60.49706055 -8.53086914 60.49706055 -10.04882812 60.49804688 C-11.08458984 60.47806641 -12.12035156 60.45808594 -13.1875 60.4375 C-14.20392578 60.44458984 -15.22035156 60.45167969 -16.26757812 60.45898438 C-23.83789087 60.39545044 -29.86252855 59.59182425 -35.875 54.625 C-39.80292096 49.77286235 -40.42785391 45.7128555 -40.3359375 39.58203125 C-39.80004427 35.46313096 -38.10549764 32.55302727 -36 29 C-35.34 29 -34.68 29 -34 29 C-33.78537109 28.46012451 -33.57074219 27.92024902 -33.34960938 27.36401367 C-31.51699211 24.15394982 -29.01643235 21.75059238 -26.40625 19.17578125 C-25.85892212 18.62891159 -25.31159424 18.08204193 -24.74768066 17.51860046 C-23.59343051 16.36736367 -22.43675858 15.21855052 -21.27783203 14.07202148 C-19.50102673 12.31351615 -17.73239754 10.54709623 -15.96484375 8.77929688 C-14.8416174 7.66098449 -13.71793503 6.54312991 -12.59375 5.42578125 C-12.0635022 4.89664627 -11.53325439 4.36751129 -10.98693848 3.82234192 C-6.90193371 -0.20989695 -5.62754506 -1.33283962 0 0 Z " fill="#447AE2" transform="translate(72,115)"/>
<path d="M0 0 C1.48064941 -0.00676758 1.48064941 -0.00676758 2.99121094 -0.01367188 C4.62123047 -0.02140625 4.62123047 -0.02140625 6.28417969 -0.02929688 C7.98767578 -0.00609375 7.98767578 -0.00609375 9.72558594 0.01757812 C10.84578125 0.00210938 11.96597656 -0.01335937 13.12011719 -0.02929688 C21.21266454 0.00892059 25.55256335 1.23072136 31.78808594 6.45507812 C35.49464929 10.98532222 35.9323804 15.32074175 35.78027344 21.03320312 C34.9395812 27.88807829 30.26225488 31.96044614 25.52636719 36.50585938 C23.68152389 38.3155628 22.01387297 40.16768795 20.35058594 42.14257812 C16.82354122 46.21664135 13.11287523 50.09933999 9.35058594 53.95507812 C8.7522998 54.5830127 8.15401367 55.21094727 7.53759766 55.85791016 C2.00813158 61.46112293 2.00813158 61.46112293 -2.52441406 61.51757812 C-3.18441406 61.18757813 -3.84441406 60.85757813 -4.52441406 60.51757812 C-4.7433149 52.61601035 -4.93825564 44.71411325 -5.11645508 36.81152344 C-5.17819745 34.12248085 -5.24759222 31.4337967 -5.32348633 28.74511719 C-5.42965876 24.88300583 -5.51608927 21.02088271 -5.59863281 17.15820312 C-5.63599045 15.95391663 -5.67334808 14.74963013 -5.71183777 13.5088501 C-5.73208511 12.38799011 -5.75233246 11.26713013 -5.77319336 10.11230469 C-5.79762009 9.12635315 -5.82204681 8.14040161 -5.84721375 7.12457275 C-5.35317996 3.13465734 -4.02252668 0.82473468 0 0 Z " fill="#306ED7" transform="translate(118.5244140625,150.482421875)"/>
<path d="M0 0 C0.78979248 -0.01813751 1.57958496 -0.03627502 2.39331055 -0.05496216 C3.08380493 -0.07650864 3.77429932 -0.09805511 4.48571777 -0.12025452 C6.87369184 0.12358453 8.42624719 0.82476292 10.46166992 2.08151245 C12.43071781 6.01960822 11.69037839 10.93884714 11.71166992 15.26901245 C11.73229492 16.29832886 11.75291992 17.32764526 11.77416992 18.38815308 C11.80962982 25.30726653 11.50743086 30.67622962 6.70776367 36.04244995 C6.11092773 36.50909058 5.5140918 36.9757312 4.89916992 37.45651245 C4.29975586 37.93862183 3.7003418 38.4207312 3.08276367 38.91744995 C0.07040517 41.08054111 -2.04899091 41.29765391 -5.72583008 41.39401245 C-7.10834961 41.45008667 -7.10834961 41.45008667 -8.51879883 41.5072937 C-15.89843872 40.46669765 -20.56504089 35.42636846 -25.47583008 30.26901245 C-26.70440352 29.00804846 -27.9348561 27.74891245 -29.16723633 26.4916687 C-29.75005371 25.89628296 -30.33287109 25.30089722 -30.93334961 24.68746948 C-32.8520031 22.76764857 -34.8490764 20.96828143 -36.91333008 19.20651245 C-48.05170099 9.65590068 -48.05170099 9.65590068 -49.60083008 4.64401245 C-49.53833008 2.08151245 -49.53833008 2.08151245 -48.53833008 1.08151245 C-47.1442086 0.95937959 -45.74415939 0.90379728 -44.3449707 0.87619019 C-43.45314087 0.85624496 -42.56131104 0.83629974 -41.64245605 0.81575012 C-40.18325745 0.79068138 -40.18325745 0.79068138 -38.69458008 0.7651062 C-37.69632202 0.7443251 -36.69806396 0.72354401 -35.66955566 0.70213318 C-32.45921992 0.63653662 -29.24879668 0.5778166 -26.03833008 0.51901245 C-23.90290475 0.47581862 -21.76748789 0.43220405 -19.63208008 0.38815308 C-8.8953076 0.17277677 -8.8953076 0.17277677 -5.10595703 0.12127686 C-3.40369545 0.09491422 -1.70158857 0.05464248 0 0 Z " fill="#437AE3" transform="translate(93.538330078125,182.91848754882813)"/>
<path d="M0 0 C0.91523437 -0.01675781 1.83046875 -0.03351563 2.7734375 -0.05078125 C8.51226835 0.68033008 12.36596441 3.68057299 16.3046875 7.734375 C17.15160156 8.59546875 17.99851563 9.4565625 18.87109375 10.34375 C19.73863281 11.2409375 20.60617188 12.138125 21.5 13.0625 C26.83845123 18.5370137 32.14403405 23.93773592 37.98071289 28.88525391 C40.25100057 30.85587035 42.06483387 32.73483423 43.625 35.3125 C43.21484375 37.9609375 43.21484375 37.9609375 42.625 40.3125 C34.86569209 40.50608633 27.1061358 40.68349731 19.34619141 40.84960938 C16.70580657 40.90804652 14.0655013 40.97020104 11.42529297 41.03613281 C7.63263433 41.13020101 3.83989149 41.2109438 0.046875 41.2890625 C-1.13553772 41.32125885 -2.31795044 41.3534552 -3.53619385 41.3866272 C-4.63703308 41.40679901 -5.73787231 41.42697083 -6.87207031 41.44775391 C-8.32435028 41.48106308 -8.32435028 41.48106308 -9.80596924 41.51504517 C-12.52132385 41.30096367 -14.10169291 40.78945931 -16.375 39.3125 C-18.34404789 35.37440423 -17.60370847 30.45516532 -17.625 26.125 C-17.645625 25.09568359 -17.66625 24.06636719 -17.6875 23.00585938 C-17.72634127 15.42695611 -17.03926957 10.38665719 -11.9375 4.5 C-7.96661767 1.1102224 -5.2387693 0.02201164 0 0 Z " fill="#2F6DD7" transform="translate(98.375,101.6875)"/>
<path d="M0 0 C4.96622349 -0.02465098 9.93241166 -0.04283649 14.89868164 -0.05493164 C16.58944316 -0.0599719 18.28020029 -0.06680405 19.97094727 -0.07543945 C22.39600707 -0.08751857 24.82100944 -0.09323123 27.24609375 -0.09765625 C28.38672523 -0.10539818 28.38672523 -0.10539818 29.55039978 -0.11329651 C31.3673257 -0.11349238 33.18413127 -0.06197277 35 0 C37.83823106 2.83823106 36 7.98613514 36 12 C28.41 12 20.82 12 13 12 C13.33 16.29 13.66 20.58 14 25 C20.93 25.33 27.86 25.66 35 26 C35 29.96 35 33.92 35 38 C27.74 38 20.48 38 13 38 C13.33 39.65 13.66 41.3 14 43 C14.11678799 45.67678073 14.0454506 48.31841457 14 51 C14.94637329 51.03758423 14.94637329 51.03758423 15.91186523 51.07592773 C18.75396825 51.19154137 21.59571083 51.31442316 24.4375 51.4375 C25.43072266 51.47681641 26.42394531 51.51613281 27.44726562 51.55664062 C28.86362305 51.61948242 28.86362305 51.61948242 30.30859375 51.68359375 C31.18314209 51.72025146 32.05769043 51.75690918 32.95874023 51.79467773 C35 52 35 52 36 53 C36.07226502 54.85287502 36.0838122 56.70833878 36.0625 58.5625 C36.05347656 59.57441406 36.04445313 60.58632812 36.03515625 61.62890625 C36.02355469 62.41136719 36.01195312 63.19382813 36 64 C31.03377651 64.02465098 26.06758834 64.04283649 21.10131836 64.05493164 C19.41055684 64.0599719 17.71979971 64.06680405 16.02905273 64.07543945 C13.60399293 64.08751857 11.17899056 64.09323123 8.75390625 64.09765625 C7.61327477 64.10539818 7.61327477 64.10539818 6.44960022 64.11329651 C4.6326743 64.11349238 2.81586873 64.06197277 1 64 C0 63 0 63 -0.12025452 60.48802185 C-0.11803391 59.37105423 -0.11581329 58.25408661 -0.11352539 57.10327148 C-0.11344986 55.84203964 -0.11337433 54.5808078 -0.11329651 53.28135681 C-0.1081891 51.89460206 -0.10297309 50.50784771 -0.09765625 49.12109375 C-0.09579201 47.71004791 -0.09436814 46.29900143 -0.09336853 44.88795471 C-0.08954379 41.16759465 -0.0797139 37.4472734 -0.06866455 33.72692871 C-0.05844948 29.93319219 -0.05387071 26.13944942 -0.04882812 22.34570312 C-0.03809158 14.89711769 -0.0210157 7.44856428 0 0 Z " fill="#6490F8" transform="translate(496,131)"/>
<path d="M0 0 C-0.54339792 4.56454251 -1.79463821 7.9728176 -4 12 C-6.31856881 11.46494566 -8.4116911 10.83336313 -10.625 9.9375 C-16.66565382 8.25954061 -22.51421814 7.99439953 -28.3125 10.625 C-32.94885933 13.27568624 -35.67578486 16.66685904 -38.3125 21.3125 C-39.67386026 26.63418103 -39.97984734 31.779083 -37.375 36.75 C-33.85532717 42.09147532 -29.33177391 45.60700974 -23 47 C-16.20120562 47.57616902 -10.47851095 46.00071662 -4 44 C-3.32332002 45.24460783 -2.65905281 46.49596896 -2 47.75 C-1.62875 48.44609375 -1.2575 49.1421875 -0.875 49.859375 C0 52 0 52 0 56 C-11.96494401 61.71658436 -22.3859994 62.43149758 -35 58 C-44.21293766 53.29640683 -49.42072679 46.57455583 -53 37 C-55.78313063 27.7228979 -53.67282776 18.34565553 -49.4375 9.875 C-48.963125 9.25625 -48.48875 8.6375 -48 8 C-47.34 8 -46.68 8 -46 8 C-45.62681641 7.10474609 -45.62681641 7.10474609 -45.24609375 6.19140625 C-42.09545201 0.65062249 -35.43922243 -2.1136528 -29.5625 -3.875 C-18.98824795 -6.34919825 -9.62398122 -5.05368877 0 0 Z " fill="#6893F6" transform="translate(594,135)"/>
<path d="M0 0 C5.20989225 3.17512746 8.65425734 7.28470049 10.875 12.9375 C12.0761954 19.66419424 11.97219717 25.45220907 8.5 31.4375 C2.64741523 37.84141521 -2.85912193 39.85083456 -11.40234375 40.390625 C-19.13102184 40.50757851 -24.20596688 38.84997416 -29.8359375 33.421875 C-33.9514381 28.51418884 -35.0845496 22.99186753 -34.85546875 16.67578125 C-33.82007982 10.15624435 -30.20101276 5.14280882 -24.9609375 1.3125 C-17.78617455 -3.08395049 -7.67260879 -3.4084089 0 0 Z M-20.5 13.4375 C-22.10847182 16.65444364 -22.11309149 19.95887222 -21.5 23.4375 C-19.32425584 26.12855198 -17.58934144 27.89282928 -14.5 29.4375 C-9.84591099 29.8511968 -7.24760524 29.24820393 -3.5 26.4375 C-1.04334803 22.75252204 -0.79913509 19.71778214 -1.5 15.4375 C-3.29363911 12.6274654 -4.51880935 10.92809532 -7.5 9.4375 C-13.36619119 8.95666466 -16.20514791 9.01250087 -20.5 13.4375 Z " fill="#6993F2" transform="translate(257.5,155.5625)"/>
<path d="M0 0 C6.24796254 -0.02464455 12.49589703 -0.04283343 18.74389648 -0.05493164 C20.87118014 -0.05997298 22.99846031 -0.06680591 25.12573242 -0.07543945 C28.17627826 -0.08751379 31.22677845 -0.09323014 34.27734375 -0.09765625 C35.71327126 -0.10539818 35.71327126 -0.10539818 37.1782074 -0.11329651 C38.49946373 -0.11340981 38.49946373 -0.11340981 39.84741211 -0.11352539 C40.62684677 -0.115746 41.40628143 -0.11796661 42.20933533 -0.12025452 C44 0 44 0 45 1 C45.14310287 4.6691577 45.04221662 8.32715441 45 12 C39.72 12 34.44 12 29 12 C29 29.16 29 46.32 29 64 C25.04 64 21.08 64 17 64 C16 63 16 63 15.87974548 60.94358826 C15.88196609 60.03979935 15.88418671 59.13601044 15.88647461 58.20483398 C15.88655014 57.18385117 15.88662567 56.16286835 15.88670349 55.11094666 C15.89186478 54.0005452 15.89702606 52.89014374 15.90234375 51.74609375 C15.9037587 50.61551041 15.90517365 49.48492706 15.90663147 48.32008362 C15.91224981 44.69252935 15.92480542 41.06503576 15.9375 37.4375 C15.94251264 34.98502693 15.94707595 32.5325529 15.95117188 30.08007812 C15.9622252 24.05336187 15.97950212 18.02669124 16 12 C10.72 12 5.44 12 0 12 C0 8.04 0 4.08 0 0 Z " fill="#6691F6" transform="translate(442,131)"/>
<path d="M0 0 C5.97325101 5.37592591 6.95152014 10.37539631 7.5 18.25 C7.45543073 25.26179413 6.98452111 32.25718187 6.5 39.25 C2.54 39.25 -1.42 39.25 -5.5 39.25 C-5.52578125 37.41953125 -5.5515625 35.5890625 -5.578125 33.703125 C-5.63439998 31.30205929 -5.69174744 28.90101855 -5.75 26.5 C-5.76417969 25.2934375 -5.77835937 24.086875 -5.79296875 22.84375 C-5.82519531 21.68359375 -5.85742188 20.5234375 -5.890625 19.328125 C-5.91157227 18.25981445 -5.93251953 17.19150391 -5.95410156 16.09082031 C-6.62773208 12.58529048 -7.67803248 11.38319047 -10.5 9.25 C-14.04250051 8.58323122 -14.04250051 8.58323122 -17.5 9.25 C-20.67592057 12.36648437 -20.90534209 14.98795709 -21.01171875 19.328125 C-21.04716797 20.48828125 -21.08261719 21.6484375 -21.11914062 22.84375 C-21.15297852 24.65359375 -21.15297852 24.65359375 -21.1875 26.5 C-21.22166016 27.72203125 -21.25582031 28.9440625 -21.29101562 30.203125 C-21.3734653 33.21842746 -21.43840971 36.23419936 -21.5 39.25 C-25.46 39.25 -29.42 39.25 -33.5 39.25 C-33.5 26.05 -33.5 12.85 -33.5 -0.75 C-29.54 -0.75 -25.58 -0.75 -21.5 -0.75 C-21.5 -0.09 -21.5 0.57 -21.5 1.25 C-20.571875 0.755 -19.64375 0.26 -18.6875 -0.25 C-12.52713652 -2.86690237 -5.97764163 -2.98882082 0 0 Z " fill="#6691F6" transform="translate(364.5,155.75)"/>
<path d="M0 0 C3.96 0 7.92 0 12 0 C13 1 13 1 13.12025452 3.05641174 C13.1169236 4.41209511 13.1169236 4.41209511 13.11352539 5.79516602 C13.11344986 6.81614883 13.11337433 7.83713165 13.11329651 8.88905334 C13.10813522 9.9994548 13.10297394 11.10985626 13.09765625 12.25390625 C13.0962413 13.38448959 13.09482635 14.51507294 13.09336853 15.67991638 C13.08775019 19.30747065 13.07519458 22.93496424 13.0625 26.5625 C13.05748736 29.01497307 13.05292405 31.4674471 13.04882812 33.91992188 C13.0377748 39.94663813 13.02049788 45.97330876 13 52 C20.26 52 27.52 52 35 52 C36 57 36 57 35 64 C23.45 64 11.9 64 0 64 C0 42.88 0 21.76 0 0 Z " fill="#6C94F4" transform="translate(183,131)"/>
<path d="M0 0 C3.96 0 7.92 0 12 0 C13.086876 6.26207787 13.02193804 12.25531016 12.78515625 18.59179688 C12.68494056 23.23539793 12.68494056 23.23539793 14.359375 27.49609375 C16.57299944 29.52524948 18.01073657 29.85765412 21 30 C23.73398135 29.29042763 23.73398135 29.29042763 26 28 C27.34106405 25.3178719 27.21450419 23.11601968 27.31640625 20.1171875 C27.35830078 18.95058594 27.40019531 17.78398437 27.44335938 16.58203125 C27.48267578 15.35871094 27.52199219 14.13539063 27.5625 12.875 C27.60568359 11.64394531 27.64886719 10.41289062 27.69335938 9.14453125 C27.79968623 6.09649488 27.90036972 3.04826261 28 0 C31.96 0 35.92 0 40 0 C40.07453622 4.1625612 40.12878254 8.3247618 40.16479492 12.48779297 C40.17981825 13.90192437 40.20024305 15.31600968 40.22631836 16.72998047 C40.26298954 18.77062397 40.27979036 20.81064792 40.29296875 22.8515625 C40.3086792 24.07697754 40.32438965 25.30239258 40.34057617 26.56494141 C39.96147497 30.38856428 39.0064823 32.74186195 37 36 C30.2221521 41.45174723 23.38731955 41.48202986 15 41 C10.51326088 40.05923212 6.54851717 38.95709764 3 36 C-0.72415217 28.6588655 -0.34791338 21.59470583 -0.1875 13.5 C-0.17396484 12.200625 -0.16042969 10.90125 -0.14648438 9.5625 C-0.11132614 6.37481991 -0.05752579 3.18735489 0 0 Z " fill="#7299F3" transform="translate(278,155)"/>
<path d="M0 0 C-0.54723683 3.37462715 -1.0549 5.08235 -3 8 C-6.96 7.67 -10.92 7.34 -15 7 C-15 7.99 -15 8.98 -15 10 C-13.824375 10.5775 -12.64875 11.155 -11.4375 11.75 C-0.34100356 17.31799287 -0.34100356 17.31799287 1 20 C1.48950655 24.98333716 1.76741914 29.46516171 -0.5 34 C-5.67189734 38.13751787 -11.10793308 39.52533218 -17.6875 39.296875 C-22.55948197 38.67141785 -27.47673302 37.52326698 -31 34 C-30.76236269 29.60370982 -28.85856441 27.22741144 -26 24 C-24.453125 24.99 -24.453125 24.99 -22.875 26 C-19.46423174 27.97282726 -16.9798357 28.38827665 -13 28 C-12.67 27.01 -12.34 26.02 -12 25 C-15.33460889 22.66577378 -18.44248074 20.78657477 -22.1875 19.1875 C-25.38866251 17.60842367 -26.04991956 16.92365244 -28.125 13.75 C-29.17392959 9.25458748 -29.15188032 6.12443727 -27 2 C-18.62161505 -4.95227687 -9.47601218 -4.21156097 0 0 Z " fill="#769BF2" transform="translate(436,157)"/>
<path d="M0 0 C4.02159114 -0.09231773 6.83878834 -0.01157727 10.28466797 2.1015625 C12.25371585 6.03965827 11.51337644 10.95889718 11.53466797 15.2890625 C11.55529297 16.31837891 11.57591797 17.34769531 11.59716797 18.40820312 C11.63262787 25.32731658 11.3304289 30.69627967 6.53076172 36.0625 C5.93392578 36.52914062 5.33708984 36.99578125 4.72216797 37.4765625 C4.12275391 37.95867187 3.52333984 38.44078125 2.90576172 38.9375 C-1.49595316 42.09824948 -6.4850816 41.55374553 -11.71533203 41.1015625 C-14.90283203 39.6015625 -14.90283203 39.6015625 -16.71533203 38.1015625 C-15.72533203 36.4515625 -14.73533203 34.8015625 -13.71533203 33.1015625 C-13.05533203 33.4315625 -12.39533203 33.7615625 -11.71533203 34.1015625 C-12.04533203 35.4215625 -12.37533203 36.7415625 -12.71533203 38.1015625 C-7.69998151 37.77196034 -7.69998151 37.77196034 -3.71533203 35.1015625 C-2.72533203 35.1015625 -1.73533203 35.1015625 -0.71533203 35.1015625 C-0.71533203 34.4415625 -0.71533203 33.7815625 -0.71533203 33.1015625 C0.27466797 33.1015625 1.26466797 33.1015625 2.28466797 33.1015625 C2.28466797 32.4415625 2.28466797 31.7815625 2.28466797 31.1015625 C3.27466797 31.1015625 4.26466797 31.1015625 5.28466797 31.1015625 C4.62466797 30.4415625 3.96466797 29.7815625 3.28466797 29.1015625 C2.95466797 28.4415625 2.62466797 27.7815625 2.28466797 27.1015625 C0.39842615 26.44934141 0.39842615 26.44934141 -1.84033203 25.9140625 C-8.4582169 23.83415583 -11.89452057 19.34256122 -16.15283203 14.1015625 C-18.85519836 10.93781655 -21.75485692 8.36887927 -24.94580078 5.71484375 C-26.71533203 4.1015625 -26.71533203 4.1015625 -28.71533203 1.1015625 C-24.56961332 0.93196287 -20.42374187 0.76641867 -16.27783203 0.6015625 C-15.11316406 0.55386719 -13.94849609 0.50617188 -12.74853516 0.45703125 C-8.49947669 0.28946275 -4.24934454 0.1589397 0 0 Z " fill="#1D60C9" transform="translate(93.71533203125,182.8984375)"/>
<path d="M0 0 C0.33 0 0.66 0 1 0 C1.1921167 5.08995341 1.3708613 10.18013197 1.53710938 15.27099609 C1.59558661 17.00354671 1.65774663 18.73597703 1.72363281 20.46826172 C1.81758626 22.95518088 1.89838011 25.44222889 1.9765625 27.9296875 C2.00875885 28.70682098 2.0409552 29.48395447 2.0741272 30.28463745 C2.12744129 32.18917246 2.07291252 34.09611456 2 36 C-1.00507148 39.00507148 -3.85035968 38.29298042 -7.9609375 38.32226562 C-9.00507812 38.31904297 -10.04921875 38.31582031 -11.125 38.3125 C-12.1459375 38.32861328 -13.166875 38.34472656 -14.21875 38.36132812 C-21.85034405 38.36623275 -27.80516165 37.63921429 -33.875 32.625 C-38.0751538 27.43657472 -38.21888578 23.45713057 -38 17 C-37.34 16.67 -36.68 16.34 -36 16 C-35.67 15.01 -35.34 14.02 -35 13 C-34.01 12.67 -33.02 12.34 -32 12 C-32 13.32 -32 14.64 -32 16 C-31.34 16.33 -30.68 16.66 -30 17 C-31.98 17.99 -31.98 17.99 -34 19 C-33.34 19.33 -32.68 19.66 -32 20 C-32 20.99 -32 21.98 -32 23 C-31.34 23 -30.68 23 -30 23 C-29 26 -29 26 -30 29 C-28.02 29.66 -26.04 30.32 -24 31 C-23.95875 29.824375 -23.9175 28.64875 -23.875 27.4375 C-23.23417309 22.2559567 -20.61093719 19.56668551 -17 16 C-15.88625 14.824375 -15.88625 14.824375 -14.75 13.625 C-11.303657 10.33530895 -7.76220529 7.15968838 -4.20703125 3.98828125 C-2.7713649 2.69491104 -1.3663719 1.3663719 0 0 Z M-28 23 C-27.67 23.66 -27.34 24.32 -27 25 C-27.66 24.67 -28.32 24.34 -29 24 C-28.67 23.67 -28.34 23.34 -28 23 Z " fill="#1B5FCA" transform="translate(70,137)"/>
<path d="M0 0 C3.96 0 7.92 0 12 0 C13.26506589 8.38691829 12.90051817 16.62552804 12.5625 25.0625 C12.50916183 26.51495191 12.45642267 27.96742595 12.40429688 29.41992188 C12.27643515 32.94689641 12.14047379 36.47350261 12 40 C10.18757948 40.02687279 8.37504767 40.04633715 6.5625 40.0625 C5.55316406 40.07410156 4.54382813 40.08570313 3.50390625 40.09765625 C1 40 1 40 0 39 C-0.08865208 36.1156618 -0.11521296 33.25537842 -0.09765625 30.37109375 C-0.0962413 29.50686295 -0.09482635 28.64263214 -0.09336853 27.75221252 C-0.08775239 24.98060708 -0.07519719 22.2090812 -0.0625 19.4375 C-0.05748708 17.5631522 -0.05292381 15.68880315 -0.04882812 13.81445312 C-0.03777772 9.20960456 -0.0205023 4.60481579 0 0 Z " fill="#749AF3" transform="translate(383,155)"/>
<path d="M0 0 C0.99 0.495 0.99 0.495 2 1 C3.50014467 1 5.00009446 0.96428403 6.5 0.9375 C10 1 10 1 11 2 C13.32817964 2.36760731 15.6618385 2.70241581 18 3 C18.33 2.01 18.66 1.02 19 0 C23.29 0.33 27.58 0.66 32 1 C32 1.99 32 2.98 32 4 C29.69 3.34 27.38 2.68 25 2 C25 3.32 25 4.64 25 6 C24.31292969 6.06058594 23.62585938 6.12117187 22.91796875 6.18359375 C21.56638672 6.30927734 21.56638672 6.30927734 20.1875 6.4375 C18.84751953 6.55931641 18.84751953 6.55931641 17.48046875 6.68359375 C13.92338227 7.09058159 13.92338227 7.09058159 11 9 C10.91224395 11.14558827 10.89304781 13.29404421 10.90234375 15.44140625 C10.90556641 16.74658203 10.90878906 18.05175781 10.91210938 19.39648438 C10.92046599 20.7851569 10.92893095 22.17382877 10.9375 23.5625 C10.94251334 24.95507656 10.94707653 26.34765481 10.95117188 27.74023438 C10.96300566 31.1601987 10.9794912 34.58007844 11 38 C7.37 38 3.74 38 0 38 C0 25.46 0 12.92 0 0 Z " fill="#6590F4" transform="translate(331,156)"/>
<path d="M0 0 C3.3 0 6.6 0 10 0 C11.23567327 2.47134653 11.09890977 4.07222152 11.0625 6.83203125 C11.05476563 7.79560547 11.04703125 8.75917969 11.0390625 9.75195312 C11.01317038 11.78060087 10.98713045 13.80924674 10.9609375 15.83789062 C10.95320313 16.80533203 10.94546875 17.77277344 10.9375 18.76953125 C10.92589844 19.65229736 10.91429687 20.53506348 10.90234375 21.44458008 C11.00346795 24.09074756 11.29081678 26.44733068 12 29 C12.66 29.33 13.32 29.66 14 30 C14 30.99 14 31.98 14 33 C14.99 32.34 15.98 31.68 17 31 C19.33199388 30.92094936 21.66832622 30.91201231 24 31 C23.125 35.875 23.125 35.875 22 37 C19.85546875 37.203125 19.85546875 37.203125 17.1875 37.25 C15.87845703 37.28867188 15.87845703 37.28867188 14.54296875 37.328125 C11.53664455 36.9402122 10.33240286 35.85809871 8 34 C7.01 34 6.02 34 5 34 C5 33.34 5 32.68 5 32 C4.34 32 3.68 32 3 32 C-0.62147568 25.45092719 -0.35060233 19.41883339 -0.1875 12.0625 C-0.17396484 10.90169922 -0.16042969 9.74089844 -0.14648438 8.54492188 C-0.1113141 5.69612948 -0.06209287 2.84831156 0 0 Z " fill="#6390F8" transform="translate(279,157)"/>
<path d="M0 0 C4.96622349 -0.02465098 9.93241166 -0.04283649 14.89868164 -0.05493164 C16.58944316 -0.0599719 18.28020029 -0.06680405 19.97094727 -0.07543945 C22.39600707 -0.08751857 24.82100944 -0.09323123 27.24609375 -0.09765625 C28.38672523 -0.10539818 28.38672523 -0.10539818 29.55039978 -0.11329651 C31.3673257 -0.11349238 33.18413127 -0.06197277 35 0 C37.83823106 2.83823106 36 7.98613514 36 12 C28.41 12 20.82 12 13 12 C13.33 16.29 13.66 20.58 14 25 C20.93 25.33 27.86 25.66 35 26 C35 29.96 35 33.92 35 38 C27.74 38 20.48 38 13 38 C13.33 39.65 13.66 41.3 14 43 C14.11678799 45.67678073 14.0454506 48.31841457 14 51 C14.94637329 51.03758423 14.94637329 51.03758423 15.91186523 51.07592773 C18.75396825 51.19154137 21.59571083 51.31442316 24.4375 51.4375 C25.43072266 51.47681641 26.42394531 51.51613281 27.44726562 51.55664062 C28.86362305 51.61948242 28.86362305 51.61948242 30.30859375 51.68359375 C31.18314209 51.72025146 32.05769043 51.75690918 32.95874023 51.79467773 C35 52 35 52 36 53 C36.07226502 54.85287502 36.0838122 56.70833878 36.0625 58.5625 C36.05347656 59.57441406 36.04445313 60.58632812 36.03515625 61.62890625 C36.02355469 62.41136719 36.01195312 63.19382813 36 64 C31.03377651 64.02465098 26.06758834 64.04283649 21.10131836 64.05493164 C19.41055684 64.0599719 17.71979971 64.06680405 16.02905273 64.07543945 C13.60399293 64.08751857 11.17899056 64.09323123 8.75390625 64.09765625 C7.61327477 64.10539818 7.61327477 64.10539818 6.44960022 64.11329651 C4.6326743 64.11349238 2.81586873 64.06197277 1 64 C0 63 0 63 -0.12025452 60.48802185 C-0.11803391 59.37105423 -0.11581329 58.25408661 -0.11352539 57.10327148 C-0.11344986 55.84203964 -0.11337433 54.5808078 -0.11329651 53.28135681 C-0.1081891 51.89460206 -0.10297309 50.50784771 -0.09765625 49.12109375 C-0.09579201 47.71004791 -0.09436814 46.29900143 -0.09336853 44.88795471 C-0.08954379 41.16759465 -0.0797139 37.4472734 -0.06866455 33.72692871 C-0.05844948 29.93319219 -0.05387071 26.13944942 -0.04882812 22.34570312 C-0.03809158 14.89711769 -0.0210157 7.44856428 0 0 Z M1 1 C1 21.13 1 41.26 1 62 C11.56 62 22.12 62 33 62 C33 59.36 33 56.72 33 54 C26.07 54 19.14 54 12 54 C11.67 48.39 11.34 42.78 11 37 C18.59 37 26.18 37 34 37 C34 33.7 34 30.4 34 27 C26.74 26.67 19.48 26.34 12 26 C11.67 21.05 11.34 16.1 11 11 C18.92 11 26.84 11 35 11 C35 7.7 35 4.4 35 1 C23.78 1 12.56 1 1 1 Z " fill="#A8C0F5" transform="translate(496,131)"/>
<path d="M0 0 C5.20989225 3.17512746 8.65425734 7.28470049 10.875 12.9375 C12.0761954 19.66419424 11.97219717 25.45220907 8.5 31.4375 C3.46872622 36.94273435 -1.29074743 39.57602701 -8.75 40.0625 C-9.82765625 40.13726562 -10.9053125 40.21203125 -12.015625 40.2890625 C-12.83546875 40.33804688 -13.6553125 40.38703125 -14.5 40.4375 C-14.5 40.1075 -14.5 39.7775 -14.5 39.4375 C-10.21 38.1175 -5.92 36.7975 -1.5 35.4375 C-1.5 34.4475 -1.5 33.4575 -1.5 32.4375 C0.15 32.4375 1.8 32.4375 3.5 32.4375 C3.54898438 31.65503906 3.59796875 30.87257812 3.6484375 30.06640625 C3.72320312 29.05449219 3.79796875 28.04257813 3.875 27 C3.94460938 25.99066406 4.01421875 24.98132813 4.0859375 23.94140625 C4.22257812 23.11511719 4.35921875 22.28882813 4.5 21.4375 C5.16 21.1075 5.82 20.7775 6.5 20.4375 C6.5 22.0875 6.5 23.7375 6.5 25.4375 C7.49 25.4375 8.48 25.4375 9.5 25.4375 C9.38601335 23.81169034 9.25844341 22.18682843 9.125 20.5625 C9.02058594 19.20511719 9.02058594 19.20511719 8.9140625 17.8203125 C8.70431868 15.25808097 8.70431868 15.25808097 6.5 13.4375 C5.18 13.4375 3.86 13.4375 2.5 13.4375 C2.005 12.4475 2.005 12.4475 1.5 11.4375 C0.34672243 16.38011817 -0.03972977 21.39411339 -0.5 26.4375 C-1.82 26.7675 -3.14 27.0975 -4.5 27.4375 C-4.17 26.9425 -3.84 26.4475 -3.5 25.9375 C-2.08889884 22.4097471 -1.80309313 19.1421102 -2.5 15.4375 C-4.33333333 12.27083333 -4.33333333 12.27083333 -7.5 10.4375 C-11.36950302 9.79007343 -14.76924499 10.193915 -18.5 11.4375 C-18.5 10.4475 -18.5 9.4575 -18.5 8.4375 C-16.58416353 8.2416991 -14.66727461 8.05617786 -12.75 7.875 C-11.14898437 7.71837891 -11.14898437 7.71837891 -9.515625 7.55859375 C-6.85858796 7.45189926 -5.00039428 7.61819605 -2.5 8.4375 C-2.17 6.1275 -1.84 3.8175 -1.5 1.4375 C-7.44 1.4375 -13.38 1.4375 -19.5 1.4375 C-20.16 3.4175 -20.82 5.3975 -21.5 7.4375 C-22.49 6.4475 -23.48 5.4575 -24.5 4.4375 C-25.82 5.4275 -27.14 6.4175 -28.5 7.4375 C-29.16 7.1075 -29.82 6.7775 -30.5 6.4375 C-23.00360842 -2.30829017 -10.6143274 -4.71521083 0 0 Z " fill="#7097F2" transform="translate(257.5,155.5625)"/>
<path d="M0 0 C0.66 0.66 1.32 1.32 2 2 C3.32303717 2.3721042 4.65737935 2.70630173 6 3 C6.66 3.33 7.32 3.66 8 4 C8 7.63 8 11.26 8 15 C7.01 15 6.02 15 5 15 C4.67 13.68 4.34 12.36 4 11 C3.95101563 11.78246094 3.90203125 12.56492188 3.8515625 13.37109375 C3.77679688 14.38300781 3.70203125 15.39492187 3.625 16.4375 C3.55539062 17.44683594 3.48578125 18.45617187 3.4140625 19.49609375 C3.27742188 20.32238281 3.14078125 21.14867187 3 22 C0.50907189 23.24546405 -0.41080733 22.7767578 -3 22 C-3 22.66 -3 23.32 -3 24 C-2.34 24.33 -1.68 24.66 -1 25 C-7.84038973 28.08299255 -13.51921698 30.49359434 -21 28 C-20.814375 27.05125 -20.62875 26.1025 -20.4375 25.125 C-19.71313368 22.10131207 -19.71313368 22.10131207 -21 20 C-16.30976546 20.56606279 -11.65499974 21.18537505 -7 22 C-7 20.35 -7 18.7 -7 17 C-5.35 16.67 -3.7 16.34 -2 16 C-2.02320313 15.01257813 -2.04640625 14.02515625 -2.0703125 13.0078125 C-2.08835937 11.72648438 -2.10640625 10.44515625 -2.125 9.125 C-2.14820313 7.84882813 -2.17140625 6.57265625 -2.1953125 5.2578125 C-2 2 -2 2 0 0 Z " fill="#6390F8" transform="translate(259,166)"/>
<path d="M0 0 C2.43757413 -0.02698422 4.87484915 -0.04683099 7.3125 -0.0625 C8.00279297 -0.07087891 8.69308594 -0.07925781 9.40429688 -0.08789062 C12.5483025 -0.10307906 14.99420019 -0.00193327 18 1 C17.67 3.31 17.34 5.62 17 8 C14 9 14 9 11 8 C9.27204648 7.93197033 7.54164635 7.91504355 5.8125 7.9375 C4.91144531 7.94652344 4.01039063 7.95554688 3.08203125 7.96484375 C2.05142578 7.98224609 2.05142578 7.98224609 1 8 C0.8453125 9.1446875 0.8453125 9.1446875 0.6875 10.3125 C0 13 0 13 -1.5625 14.28125 C-3.30261181 15.99985095 -3.30261181 15.99985095 -3.07421875 18.91796875 C-2.94660156 19.99691406 -2.81898438 21.07585937 -2.6875 22.1875 C-2.56761719 23.27417969 -2.44773438 24.36085937 -2.32421875 25.48046875 C-2.21722656 26.31191406 -2.11023438 27.14335937 -2 28 C-3.98 28.33 -5.96 28.66 -8 29 C-8 27.33333333 -8 25.66666667 -8 24 C-8.66 24 -9.32 24 -10 24 C-8.97521927 15.66691456 -8.04065086 10.04065086 -2 4 C-1.30251417 2.68252676 -0.63040043 1.35085807 0 0 Z " fill="#6591F7" transform="translate(238,156)"/>
<path d="M0 0 C-0.54723683 3.37462715 -1.0549 5.08235 -3 8 C-3.81984375 7.91621094 -4.6396875 7.83242187 -5.484375 7.74609375 C-7.10085938 7.59333984 -7.10085938 7.59333984 -8.75 7.4375 C-9.81734375 7.33308594 -10.8846875 7.22867188 -11.984375 7.12109375 C-14.64141204 7.01439926 -16.49960572 7.18069605 -19 8 C-19 6.35 -19 4.7 -19 3 C-18.67 3.66 -18.34 4.32 -18 5 C-17.34 5 -16.68 5 -16 5 C-16 3.68 -16 2.36 -16 1 C-17.98 1.33 -19.96 1.66 -22 2 C-22.144375 3.010625 -22.28875 4.02125 -22.4375 5.0625 C-22.95833333 8.70833333 -23.47916667 12.35416667 -24 16 C-23.01 16 -22.02 16 -21 16 C-20.67 16.66 -20.34 17.32 -20 18 C-19.01 18.33 -18.02 18.66 -17 19 C-17.33 19.66 -17.66 20.32 -18 21 C-22.54568355 19.26162695 -25.40562405 17.90904557 -28.125 13.75 C-29.17392959 9.25458748 -29.15188032 6.12443727 -27 2 C-18.62161505 -4.95227687 -9.47601218 -4.21156097 0 0 Z " fill="#6890F0" transform="translate(436,157)"/>
<path d="M0 0 C6.24796254 -0.02464455 12.49589703 -0.04283343 18.74389648 -0.05493164 C20.87118014 -0.05997298 22.99846031 -0.06680591 25.12573242 -0.07543945 C28.17627826 -0.08751379 31.22677845 -0.09323014 34.27734375 -0.09765625 C35.71327126 -0.10539818 35.71327126 -0.10539818 37.1782074 -0.11329651 C38.49946373 -0.11340981 38.49946373 -0.11340981 39.84741211 -0.11352539 C40.62684677 -0.115746 41.40628143 -0.11796661 42.20933533 -0.12025452 C44 0 44 0 45 1 C45.14310287 4.6691577 45.04221662 8.32715441 45 12 C39.72 12 34.44 12 29 12 C29 29.16 29 46.32 29 64 C25.04 64 21.08 64 17 64 C17 63.67 17 63.34 17 63 C20.63 63 24.26 63 28 63 C27.96970703 61.50106201 27.93941406 60.00212402 27.90820312 58.45776367 C27.79608355 52.90601194 27.68435856 47.35425233 27.57275391 41.80249023 C27.52435935 39.39786566 27.47585723 36.99324325 27.42724609 34.58862305 C27.35746556 31.13591056 27.28806957 27.68319052 27.21875 24.23046875 C27.19687622 23.15226364 27.17500244 22.07405853 27.15246582 20.96318054 C27.13244507 19.96236954 27.11242432 18.96155853 27.09179688 17.93041992 C27.07403198 17.04883713 27.05626709 16.16725433 27.03796387 15.25895691 C27.00850671 13.50617311 27 11.75303131 27 10 C32.28 10 37.56 10 43 10 C43 7.36 43 4.72 43 2 C42.11852295 2.00523682 41.2370459 2.01047363 40.32885742 2.01586914 C37.00577112 2.03308269 33.68273335 2.04553263 30.35961914 2.05493164 C28.93122604 2.05990862 27.50283788 2.06669262 26.07446289 2.07543945 C17.65607219 2.1256368 9.38062966 1.92631851 1 1 C1 4.3 1 7.6 1 11 C5.95 11 10.9 11 16 11 C16 11.33 16 11.66 16 12 C10.72 12 5.44 12 0 12 C0 8.04 0 4.08 0 0 Z " fill="#A1B9F0" transform="translate(442,131)"/>
<path d="M0 0 C9.27734375 -0.09765625 9.27734375 -0.09765625 12 0 C13 1 13 1 13.12025452 3.51197815 C13.1169236 5.18742958 13.1169236 5.18742958 13.11352539 6.89672852 C13.11344986 8.15796036 13.11337433 9.4191922 13.11329651 10.71864319 C13.1081891 12.10539794 13.10297309 13.49215229 13.09765625 14.87890625 C13.09579201 16.28995209 13.09436814 17.70099857 13.09336853 19.11204529 C13.08954379 22.83240535 13.0797139 26.5527266 13.06866455 30.27307129 C13.05844948 34.06680781 13.05387071 37.86055058 13.04882812 41.65429688 C13.03809158 49.10288436 13.02049515 56.5514318 13 64 C8.71 64 4.42 64 0 64 C0 55.09 0 46.18 0 37 C0.33 37 0.66 37 1 37 C1 45.25 1 53.5 1 62 C4.3 62 7.6 62 11 62 C11 42.2 11 22.4 11 2 C7.7 2 4.4 2 1 2 C1 5.63 1 9.26 1 13 C0.67 13 0.34 13 0 13 C0 8.71 0 4.42 0 0 Z " fill="#99B2EB" transform="translate(640,131)"/>
<path d="M0 0 C0.12375 0.639375 0.2475 1.27875 0.375 1.9375 C0.684375 2.9584375 0.684375 2.9584375 1 4 C1.66 4.33 2.32 4.66 3 5 C1.02 5.99 1.02 5.99 -1 7 C-0.34 7.33 0.32 7.66 1 8 C1 8.99 1 9.98 1 11 C1.66 11 2.32 11 3 11 C4 14 4 14 3 17 C5.33214148 18.20628008 7.49642139 19.1654738 10 20 C10 21.32 10 22.64 10 24 C17.59 24 25.18 24 33 24 C33 24.66 33 25.32 33 26 C29.33348753 26.08796382 25.66725082 26.14071247 22 26.1875 C20.97003906 26.21263672 19.94007812 26.23777344 18.87890625 26.26367188 C11.16683544 26.33735408 5.26831729 25.69991428 -0.875 20.625 C-5.0751538 15.43657472 -5.21888578 11.45713057 -5 5 C-4.34 4.67 -3.68 4.34 -3 4 C-2.67 3.01 -2.34 2.02 -2 1 C-1.34 0.67 -0.68 0.34 0 0 Z M5 11 C5.33 11.66 5.66 12.32 6 13 C5.34 12.67 4.68 12.34 4 12 C4.33 11.67 4.66 11.34 5 11 Z " fill="#306CC7" transform="translate(37,149)"/>
<path d="M0 0 C0.66 0.33 1.32 0.66 2 1 C1.51789063 1.56074219 1.03578125 2.12148437 0.5390625 2.69921875 C-1.19001704 5.28406101 -1.44128364 6.74250287 -1.625 9.8125 C-1.68816406 10.68261719 -1.75132813 11.55273438 -1.81640625 12.44921875 C-1.90728516 13.71185547 -1.90728516 13.71185547 -2 15 C-2.29419048 17.34109322 -2.64499896 19.66713603 -3 22 C-1.68 22 -0.36 22 1 22 C1.309375 21.05125 1.61875 20.1025 1.9375 19.125 C3 16 3 16 4 14 C4.804375 13.896875 5.60875 13.79375 6.4375 13.6875 C7.7059375 13.3471875 7.7059375 13.3471875 9 13 C10.37466625 10.52363988 10.37466625 10.52363988 11 8 C11.66 8 12.32 8 13 8 C13.33 7.34 13.66 6.68 14 6 C17.0625 5.375 17.0625 5.375 20 5 C20 9.52501627 17.27683947 11.147527 14.20117188 14.2578125 C13.41291016 15.03898438 12.62464844 15.82015625 11.8125 16.625 C11.04357422 17.41390625 10.27464844 18.2028125 9.48242188 19.015625 C8.73154297 19.76585937 7.98066406 20.51609375 7.20703125 21.2890625 C6.5210083 21.97693848 5.83498535 22.66481445 5.12817383 23.37353516 C2.69512069 25.23300516 1.03211552 25.73611977 -2 26 C-2.66 25.67 -3.32 25.34 -4 25 C-4 18.07 -4 11.14 -4 4 C-3.34 4 -2.68 4 -2 4 C-2 3.34 -2 2.68 -2 2 C-1.34 2 -0.68 2 0 2 C0 1.34 0 0.68 0 0 Z " fill="#7699E7" transform="translate(118,186)"/>
<path d="M0 0 C2.3920839 2.3920839 2.34576948 3.15138886 2.4375 6.4375 C2.32875628 10.6513191 2.32875628 10.6513191 -0.0625 13.1875 C-4.04883703 14.29010386 -6.2391687 13.63205886 -10 12 C-12.12625297 9.51937154 -12.00850811 8.20844862 -11.875 4.9375 C-11 2 -11 2 -9.375 0.0625 C-5.95249533 -1.46862051 -3.58323398 -0.8626304 0 0 Z " fill="#658FF5" transform="translate(394,134)"/>
<path d="M0 0 C0.33 0 0.66 0 1 0 C1.12375 1.85625 1.12375 1.85625 1.25 3.75 C1.63354744 6.89064211 1.89891249 7.87282539 3.9375 10.4375 C7.44794202 13.09692577 9.62019118 13.17876771 14 13 C14.99 12.67 15.98 12.34 17 12 C17 13.65 17 15.3 17 17 C12.71 16.67 8.42 16.34 4 16 C4.33 17.32 4.66 18.64 5 20 C4.34 20 3.68 20 3 20 C3 20.99 3 21.98 3 23 C3.99 23.33 4.98 23.66 6 24 C-0.45027515 23.73672346 -3.47915791 21.49335977 -8 17 C-5.43332409 14.98332607 -2.93446886 13.41791563 0 12 C-0.08378906 11.21753906 -0.16757813 10.43507812 -0.25390625 9.62890625 C-0.40666016 8.11103516 -0.40666016 8.11103516 -0.5625 6.5625 C-0.66691406 5.55316406 -0.77132812 4.54382813 -0.87890625 3.50390625 C-0.91886719 2.67761719 -0.95882812 1.85132813 -1 1 C-0.67 0.67 -0.34 0.34 0 0 Z " fill="#769AF4" transform="translate(235,171)"/>
<path d="M0 0 C8.51304348 6.95869565 8.51304348 6.95869565 11 11 C10.67 12.65 10.34 14.3 10 16 C3.07 16 -3.86 16 -11 16 C-10.67 15.34 -10.34 14.68 -10 14 C-7.69 14 -5.38 14 -3 14 C-3 13.34 -3 12.68 -3 12 C-2.34 12 -1.68 12 -1 12 C-1.350625 11.2575 -1.70125 10.515 -2.0625 9.75 C-3.04510094 6.86770391 -3.18154896 5.75694758 -2 3 C-1.34 2.67 -0.68 2.34 0 2 C0 1.34 0 0.68 0 0 Z " fill="#648FF1" transform="translate(131,126)"/>
<path d="M0 0 C11.22 0 22.44 0 34 0 C34 3.3 34 6.6 34 10 C26.74 10 19.48 10 12 10 C12 9.67 12 9.34 12 9 C18.93 9 25.86 9 33 9 C33 6.36 33 3.72 33 1 C22.77 1 12.54 1 2 1 C2.33 4.3 2.66 7.6 3 11 C2.77680869 13.10523696 2.5498327 15.21070029 2.26220703 17.30810547 C1.6409164 23.68645788 1.90003334 30.15852856 1.9375 36.5625 C1.9425254 38.06314955 1.94708647 39.56380072 1.95117188 41.06445312 C1.96209424 44.70966977 1.97930144 48.35482422 2 52 C1.01 52.495 1.01 52.495 0 53 C0 35.51 0 18.02 0 0 Z " fill="#6B90E6" transform="translate(497,132)"/>
<path d="M0 0 C3 0 3 0 4.6875 1.5625 C6.52844834 4.98140406 6.53769821 7.16890025 6 11 C4 13.9375 4 13.9375 1 16 C-1.80743814 16.40476927 -4.14074541 16.24230971 -7 16 C-7.33 14.68 -7.66 13.36 -8 12 C-7.01 11.38125 -7.01 11.38125 -6 10.75 C-5.34 10.1725 -4.68 9.595 -4 9 C-4 7.68 -4 6.36 -4 5 C-2.68 4.67 -1.36 4.34 0 4 C0 2.68 0 1.36 0 0 Z " fill="#6D94F3" transform="translate(430,178)"/>
<path d="M0 0 C1.0725 0.2475 2.145 0.495 3.25 0.75 C1.875 2.75 1.875 2.75 0.25 4.75 C-0.41 4.75 -1.07 4.75 -1.75 4.75 C-2.08 5.74 -2.41 6.73 -2.75 7.75 C-2.09 7.75 -1.43 7.75 -0.75 7.75 C-0.75 8.74 -0.75 9.73 -0.75 10.75 C0.24 11.08 1.23 11.41 2.25 11.75 C2.58 13.4 2.91 15.05 3.25 16.75 C2.26 16.75 1.27 16.75 0.25 16.75 C0.58 18.07 0.91 19.39 1.25 20.75 C0.59 20.75 -0.07 20.75 -0.75 20.75 C-0.75 20.09 -0.75 19.43 -0.75 18.75 C-2.07 18.42 -3.39 18.09 -4.75 17.75 C-4.75 17.09 -4.75 16.43 -4.75 15.75 C-5.74 15.75 -6.73 15.75 -7.75 15.75 C-7.85841951 13.83458862 -7.93578079 11.91740227 -8 10 C-8.04640625 8.93265625 -8.0928125 7.8653125 -8.140625 6.765625 C-7.75 3.75 -7.75 3.75 -5.96875 1.34375 C-3.75 -0.25 -3.75 -0.25 0 0 Z " fill="#658FF7" transform="translate(419.75,157.25)"/>
<path d="M0 0 C3.96 0 7.92 0 12 0 C12.33 1.98 12.66 3.96 13 6 C12.34 4.68 11.68 3.36 11 2 C7.7 2 4.4 2 1 2 C1.11059313 6.02136393 1.2410528 10.04185155 1.375 14.0625 C1.4059375 15.19623047 1.436875 16.32996094 1.46875 17.49804688 C1.67275102 23.32907596 2.03276356 28.4901386 4 34 C4.66 34 5.32 34 6 34 C6 34.66 6 35.32 6 36 C7.98 35.505 7.98 35.505 10 35 C10.33 35.99 10.66 36.98 11 38 C18.26 38 25.52 38 33 38 C29.58591496 41.41408504 25.26949914 41.15422995 20.625 41.1875 C14.23432828 41.1187831 8.03522267 40.19601889 3 36 C-0.72415217 28.6588655 -0.34791338 21.59470583 -0.1875 13.5 C-0.17396484 12.200625 -0.16042969 10.90125 -0.14648438 9.5625 C-0.11132614 6.37481991 -0.05752579 3.18735489 0 0 Z " fill="#88A2E5" transform="translate(278,155)"/>
<path d="M0 0 C0.33 0 0.66 0 1 0 C1 3.63 1 7.26 1 11 C-6.59 11 -14.18 11 -22 11 C-21.67 15.29 -21.34 19.58 -21 24 C-14.07 24.33 -7.14 24.66 0 25 C0 28.96 0 32.92 0 37 C-7.26 37 -14.52 37 -22 37 C-22 36.67 -22 36.34 -22 36 C-15.07 36 -8.14 36 -1 36 C-1 32.7 -1 29.4 -1 26 C-3.36478516 26.01740234 -3.36478516 26.01740234 -5.77734375 26.03515625 C-7.83072799 26.04453243 -9.8841135 26.05363282 -11.9375 26.0625 C-13.49887695 26.07506836 -13.49887695 26.07506836 -15.09179688 26.08789062 C-16.08115234 26.09111328 -17.07050781 26.09433594 -18.08984375 26.09765625 C-19.46450806 26.10551147 -19.46450806 26.10551147 -20.86694336 26.11352539 C-23 26 -23 26 -24 25 C-24.07320163 22.4672235 -24.09227569 19.96896082 -24.0625 17.4375 C-24.041875 14.983125 -24.02125 12.52875 -24 10 C-16.08 10 -8.16 10 0 10 C0 6.7 0 3.4 0 0 Z " fill="#ADC4F2" transform="translate(531,132)"/>
<path d="M0 0 C2.31 0 4.62 0 7 0 C5.26548969 4.68317784 1.40759243 7.79620379 -3 10 C-14.23793566 10.94101877 -14.23793566 10.94101877 -19 7 C-18.01 5.35 -17.02 3.7 -16 2 C-15.34 2.33 -14.68 2.66 -14 3 C-14.33 4.32 -14.66 5.64 -15 7 C-9.98464948 6.67039784 -9.98464948 6.67039784 -6 4 C-5.01 4 -4.02 4 -3 4 C-3 3.34 -3 2.68 -3 2 C-2.01 2 -1.02 2 0 2 C0 1.34 0 0.68 0 0 Z " fill="#1F61C6" transform="translate(96,214)"/>
<path d="M0 0 C3.96 0 7.92 0 12 0 C13.04616643 3.1384993 13.04169366 5.05038303 12.87890625 8.32421875 C12.83056641 9.35224609 12.78222656 10.38027344 12.73242188 11.43945312 C12.67634766 12.51130859 12.62027344 13.58316406 12.5625 14.6875 C12.51029297 15.77095703 12.45808594 16.85441406 12.40429688 17.97070312 C12.27458784 20.64742591 12.13962067 23.32377888 12 26 C11.34 25.67 10.68 25.34 10 25 C10 17.08 10 9.16 10 1 C7.36 1.33 4.72 1.66 2 2 C1.67 20.48 1.34 38.96 1 58 C0.67 58 0.34 58 0 58 C0 38.86 0 19.72 0 0 Z " fill="#7091E1" transform="translate(605,132)"/>
<path d="M0 0 C2.475 0.495 2.475 0.495 5 1 C4.67 1.99 4.34 2.98 4 4 C4.66 4.33 5.32 4.66 6 5 C5.67 5.99 5.34 6.98 5 8 C7.64 8.33 10.28 8.66 13 9 C13 10.32 13 11.64 13 13 C19.27 13 25.54 13 32 13 C32.33 12.01 32.66 11.02 33 10 C34.32 11.32 35.64 12.64 37 14 C33.04168267 14.02940464 29.08339403 14.04693328 25.125 14.0625 C24.01640625 14.07087891 22.9078125 14.07925781 21.765625 14.08789062 C15.10948511 14.10746751 8.6060883 13.82879778 2 13 C-0.24828052 8.50343896 -0.16682272 4.92127034 0 0 Z " fill="#1A5FC9" transform="translate(83,128)"/>
<path d="M0 0 C0 0.66 0 1.32 0 2 C-0.78246094 2.04898438 -1.56492187 2.09796875 -2.37109375 2.1484375 C-3.38300781 2.22320312 -4.39492188 2.29796875 -5.4375 2.375 C-6.44683594 2.44460937 -7.45617187 2.51421875 -8.49609375 2.5859375 C-9.32238281 2.72257813 -10.14867187 2.85921875 -11 3 C-11.33 3.66 -11.66 4.32 -12 5 C-14.33294775 5.04241723 -16.66702567 5.04092937 -19 5 C-19.33 4.67 -19.66 4.34 -20 4 C-22.31 4 -24.62 4 -27 4 C-27.33 15.55 -27.66 27.1 -28 39 C-28.33 39 -28.66 39 -29 39 C-28.99476318 37.91992676 -28.98952637 36.83985352 -28.98413086 35.72705078 C-28.96605892 31.72771022 -28.95455993 27.72837328 -28.94506836 23.72900391 C-28.94003318 21.99657586 -28.93320468 20.26415208 -28.92456055 18.53173828 C-28.91245935 16.04458567 -28.90676362 13.55748913 -28.90234375 11.0703125 C-28.89718246 10.29317902 -28.89202118 9.51604553 -28.88670349 8.71536255 C-28.79671948 4.72829094 -28.79671948 4.72829094 -30 1 C-26.04 1 -22.08 1 -18 1 C-18 1.66 -18 2.32 -18 3 C-17.071875 2.505 -16.14375 2.01 -15.1875 1.5 C-10.26031562 -0.659445 -5.27718611 -0.25765646 0 0 Z " fill="#7B9CEB" transform="translate(361,154)"/>
<path d="M0 0 C4.29 0 8.58 0 13 0 C13 0.33 13 0.66 13 1 C9.04 1 5.08 1 1 1 C1.10799645 8.52780367 1.22006224 16.05552548 1.33933926 23.58315849 C1.39455772 27.07835597 1.44797596 30.57356184 1.49731445 34.06884766 C1.55408436 38.08505496 1.61862219 42.10110445 1.68359375 46.1171875 C1.70030624 47.37554413 1.71701874 48.63390076 1.73423767 49.9303894 C1.75418289 51.09144196 1.77412811 52.25249451 1.79467773 53.44873047 C1.81022202 54.47465302 1.8257663 55.50057556 1.84178162 56.55758667 C1.8416631 59.00704188 1.8416631 59.00704188 3 61 C5.34907875 61.68931344 5.34907875 61.68931344 8.0625 62.125 C8.98160156 62.29257813 9.90070312 62.46015625 10.84765625 62.6328125 C11.91306641 62.81457031 11.91306641 62.81457031 13 63 C13 63.33 13 63.66 13 64 C11.02090602 64.02686553 9.04171029 64.04633375 7.0625 64.0625 C5.96035156 64.07410156 4.85820313 64.08570313 3.72265625 64.09765625 C1 64 1 64 0 63 C-0.0940067 61.03630847 -0.11743381 59.06920801 -0.11352539 57.10327148 C-0.11344986 55.84203964 -0.11337433 54.5808078 -0.11329651 53.28135681 C-0.1081891 51.89460206 -0.10297309 50.50784771 -0.09765625 49.12109375 C-0.09579201 47.71004791 -0.09436814 46.29900143 -0.09336853 44.88795471 C-0.08954379 41.16759465 -0.0797139 37.4472734 -0.06866455 33.72692871 C-0.05844948 29.93319219 -0.05387071 26.13944942 -0.04882812 22.34570312 C-0.03809158 14.89711564 -0.02049515 7.4485682 0 0 Z " fill="#B5CCFE" transform="translate(604,131)"/>
<path d="M0 0 C0.90105469 0.00902344 1.80210937 0.01804688 2.73046875 0.02734375 C3.41753906 0.03894531 4.10460937 0.05054688 4.8125 0.0625 C4.8125 0.3925 4.8125 0.7225 4.8125 1.0625 C4.22082031 1.09988281 3.62914062 1.13726562 3.01953125 1.17578125 C-3.6379903 1.65293039 -3.6379903 1.65293039 -9.1875 5.0625 C-10.04137105 8.36817489 -10.04137105 8.36817489 -10.1875 12.0625 C-10.52083333 14.39583333 -10.85416667 16.72916667 -11.1875 19.0625 C-10.1975 19.0625 -9.2075 19.0625 -8.1875 19.0625 C-7.8575 19.7225 -7.5275 20.3825 -7.1875 21.0625 C-6.1975 21.3925 -5.2075 21.7225 -4.1875 22.0625 C-4.5175 22.7225 -4.8475 23.3825 -5.1875 24.0625 C-9.73318355 22.32412695 -12.59312405 20.97154557 -15.3125 16.8125 C-16.36142959 12.31708748 -16.33938032 9.18693727 -14.1875 5.0625 C-9.5897524 1.24734774 -5.88890876 -0.07647933 0 0 Z " fill="#94AEED" transform="translate(423.1875,153.9375)"/>
<path d="M0 0 C1.03165283 0.02094727 2.06330566 0.04189453 3.1262207 0.06347656 C4.80361328 0.0828125 4.80361328 0.0828125 6.51489258 0.10253906 C7.68213867 0.13605469 8.84938477 0.16957031 10.05200195 0.20410156 C11.23084961 0.22214844 12.40969727 0.24019531 13.62426758 0.25878906 C16.53849121 0.30598297 19.45109226 0.37181079 22.36450195 0.45410156 C22.36450195 0.78410156 22.36450195 1.11410156 22.36450195 1.45410156 C17.90950195 1.94910156 17.90950195 1.94910156 13.36450195 2.45410156 C13.36450195 2.78410156 13.36450195 3.11410156 13.36450195 3.45410156 C7.73950195 4.57910156 7.73950195 4.57910156 4.36450195 3.45410156 C4.03450195 4.11410156 3.70450195 4.77410156 3.36450195 5.45410156 C3.03450195 5.12410156 2.70450195 4.79410156 2.36450195 4.45410156 C1.04450195 7.09410156 -0.27549805 9.73410156 -1.63549805 12.45410156 C-2.62549805 12.45410156 -3.61549805 12.45410156 -4.63549805 12.45410156 C-6.04007542 9.64494682 -5.88444962 7.56599622 -5.63549805 4.45410156 C-4.06273198 1.49930844 -3.35247137 0.57763749 0 0 Z " fill="#5D8ACE" transform="translate(118.635498046875,150.5458984375)"/>
<path d="M0 0 C1.37381836 -0.04350586 1.37381836 -0.04350586 2.77539062 -0.08789062 C9.58062055 -0.1523247 9.58062055 -0.1523247 12.82421875 2.33203125 C13.27410156 2.98558594 13.72398438 3.63914063 14.1875 4.3125 C13.8575 4.9725 13.5275 5.6325 13.1875 6.3125 C11.8675 5.6525 10.5475 4.9925 9.1875 4.3125 C9.1875 3.3225 9.1875 2.3325 9.1875 1.3125 C6.70729503 1.42591491 4.22905031 1.55264686 1.75 1.6875 C1.04294922 1.7184375 0.33589844 1.749375 -0.39257812 1.78125 C-2.20489188 1.88530629 -4.01067988 2.09169892 -5.8125 2.3125 C-6.99701089 4.24089876 -6.99701089 4.24089876 -6.625 6.3125 C-5.96890538 8.49841701 -5.96890538 8.49841701 -3.75 9.5625 C-3.110625 9.81 -2.47125 10.0575 -1.8125 10.3125 C-1.8125 11.3025 -1.8125 12.2925 -1.8125 13.3125 C-0.8225 13.3125 0.1675 13.3125 1.1875 13.3125 C4.11177254 15.72072445 5.64675627 17.52729387 6.1875 21.3125 C2.0253224 19.65972246 -0.87211279 16.65642945 -4 13.5625 C-4.54591797 13.04945313 -5.09183594 12.53640625 -5.65429688 12.0078125 C-9.06180368 8.6467525 -10.67355634 6.31447193 -10.8125 1.3125 C-8.5082645 -0.9917355 -3.09163339 0.03222689 0 0 Z " fill="#799BE9" transform="translate(54.8125,183.6875)"/>
<path d="M0 0 C4.49527629 3.69611606 8.73339463 7.59991851 12.875 11.6875 C13.36331299 12.16292236 13.85162598 12.63834473 14.35473633 13.12817383 C16.65000196 15.41697734 17.95898107 16.87694321 19 20 C10.68989547 17.85714286 10.68989547 17.85714286 7.9375 14.4375 C7 12 7 12 7 10 C6.05125 10.04125 5.1025 10.0825 4.125 10.125 C1 10 1 10 -1 8 C-0.4740625 7.13375 -0.4740625 7.13375 0.0625 6.25 C1.16577711 3.60213494 0.80156509 2.66814674 0 0 Z " fill="#658BDC" transform="translate(113,109)"/>
<path d="M0 0 C1.41623216 -0.05447047 2.83308191 -0.09300508 4.25 -0.125 C5.03890625 -0.14820313 5.8278125 -0.17140625 6.640625 -0.1953125 C9.24614317 0.02037609 10.79986977 0.6078822 13 2 C14.27861615 4.55723229 14.11336609 6.36737102 14.09765625 9.2265625 C14.09443359 10.2578125 14.09121094 11.2890625 14.08789062 12.3515625 C14.07951172 13.43179688 14.07113281 14.51203125 14.0625 15.625 C14.05798828 16.71296875 14.05347656 17.8009375 14.04882812 18.921875 C14.03701776 21.61463789 14.02054778 24.30729188 14 27 C13.34 27.33 12.68 27.66 12 28 C12 21.07 12 14.14 12 7 C10.68 7.33 9.36 7.66 8 8 C6.9375 6.125 6.9375 6.125 6 4 C6.33 3.34 6.66 2.68 7 2 C4.69 1.67 2.38 1.34 0 1 C0 0.67 0 0.34 0 0 Z " fill="#4C7DC9" transform="translate(91,183)"/>
<path d="M0 0 C0.66 0.33 1.32 0.66 2 1 C2 2.65 2 4.3 2 6 C1.01 6.495 1.01 6.495 0 7 C-0.66 6.67 -1.32 6.34 -2 6 C-5.45800359 5.58326793 -5.45800359 5.58326793 -9 6 C-12.19112723 9.0948174 -12.40561571 11.74912113 -12.51171875 16.078125 C-12.54716797 17.23828125 -12.58261719 18.3984375 -12.61914062 19.59375 C-12.65297852 21.40359375 -12.65297852 21.40359375 -12.6875 23.25 C-12.72166016 24.47203125 -12.75582031 25.6940625 -12.79101562 26.953125 C-12.8734653 29.96842746 -12.93840971 32.98419936 -13 36 C-16.96 36 -20.92 36 -25 36 C-25 35.67 -25 35.34 -25 35 C-21.37 35 -17.74 35 -14 35 C-14.33 24.44 -14.66 13.88 -15 3 C-14.34 3 -13.68 3 -13 3 C-13 3.66 -13 4.32 -13 5 C-12.01 4.34 -11.02 3.68 -10 3 C-7.51953125 2.8046875 -7.51953125 2.8046875 -4.8125 2.875 C-3.91144531 2.89304688 -3.01039063 2.91109375 -2.08203125 2.9296875 C-1.39496094 2.95289063 -0.70789063 2.97609375 0 3 C0 2.01 0 1.02 0 0 Z " fill="#91ADED" transform="translate(356,159)"/>
<path d="M0 0 C-0.35223924 2.74159541 -0.69787826 3.75717901 -2.890625 5.51953125 C-4.05851562 6.15955078 -4.05851562 6.15955078 -5.25 6.8125 C-6.01828125 7.25207031 -6.7865625 7.69164063 -7.578125 8.14453125 C-10.46838261 9.16544482 -12.09409294 8.83982775 -15 8 C-14.6406828 5.4847796 -13.93759565 3.90232362 -12.5625 1.75 C-8.61137615 -0.94832848 -4.64558417 -0.31916227 0 0 Z " fill="#1F61C6" transform="translate(103,102)"/>
<path d="M0 0 C0.83854735 6.90188971 1.01593448 13.11422188 0 20 C-0.33 20 -0.66 20 -1 20 C-1 15.05 -1 10.1 -1 5 C-3.64 5 -6.28 5 -9 5 C-9 5.99 -9 6.98 -9 8 C-10.98 8.33 -12.96 8.66 -15 9 C-6.36561388 -1.50516978 -6.36561388 -1.50516978 0 0 Z " fill="#7A9AEB" transform="translate(72,115)"/>
<path d="M0 0 C1.97909398 -0.02686553 3.95828971 -0.04633375 5.9375 -0.0625 C7.03964844 -0.07410156 8.14179688 -0.08570313 9.27734375 -0.09765625 C12 0 12 0 13 1 C13.09333705 2.59610982 13.11745372 4.19633428 13.11352539 5.79516602 C13.11344986 6.81614883 13.11337433 7.83713165 13.11329651 8.88905334 C13.10813522 9.9994548 13.10297394 11.10985626 13.09765625 12.25390625 C13.0962413 13.38448959 13.09482635 14.51507294 13.09336853 15.67991638 C13.08775019 19.30747065 13.07519458 22.93496424 13.0625 26.5625 C13.05748736 29.01497307 13.05292405 31.4674471 13.04882812 33.91992188 C13.0377748 39.94663545 13.02101884 45.97331339 13 52 C12.67 52 12.34 52 12 52 C11.98969254 51.40087296 11.97938507 50.80174591 11.96876526 50.1844635 C11.86093035 43.97189912 11.74631456 37.75948659 11.62768555 31.54711914 C11.58426261 29.22586227 11.54259316 26.90457192 11.50268555 24.58325195 C11.4451606 21.25461722 11.38141575 17.92615215 11.31640625 14.59765625 C11.29969376 13.55287613 11.28298126 12.50809601 11.26576233 11.43165588 C11.24581711 10.47073532 11.22587189 9.50981476 11.20532227 8.51977539 C11.18977798 7.66928116 11.1742337 6.81878693 11.15821838 5.94252014 C11.21055171 3.99476202 11.21055171 3.99476202 10 3 C8.32115762 2.6068352 6.63149955 2.25914548 4.9375 1.9375 C4.01839844 1.76089844 3.09929687 1.58429688 2.15234375 1.40234375 C1.44207031 1.26957031 0.73179687 1.13679687 0 1 C0 0.67 0 0.34 0 0 Z " fill="#8DABF1" transform="translate(183,131)"/>
<path d="M0 0 C0.66 0 1.32 0 2 0 C3.52780778 4.58342335 3.04720922 9.39405093 2.9609375 14.15625 C2.92119968 17.70616206 3.13082634 20.52330535 4 24 C7.3 24.33 10.6 24.66 14 25 C14 25.66 14 26.32 14 27 C12.58376784 27.05447047 11.16691809 27.09300508 9.75 27.125 C8.56664063 27.15980469 8.56664063 27.15980469 7.359375 27.1953125 C4.75385683 26.97962391 3.20013023 26.3921178 1 25 C-0.27861615 22.44276771 -0.11336609 20.63262898 -0.09765625 17.7734375 C-0.09443359 16.7421875 -0.09121094 15.7109375 -0.08789062 14.6484375 C-0.07951172 13.56820312 -0.07113281 12.48796875 -0.0625 11.375 C-0.05798828 10.28703125 -0.05347656 9.1990625 -0.04882812 8.078125 C-0.03701776 5.38536211 -0.02054778 2.69270812 0 0 Z " fill="#5A85C9" transform="translate(81,116)"/>
<path d="M0 0 C-4.69766975 5.66129431 -9.74723372 10.85228904 -15 16 C-15.33 15.01 -15.66 14.02 -16 13 C-15.34 12.01 -14.68 11.02 -14 10 C-13.01 10 -12.02 10 -11 10 C-11 7.69 -11 5.38 -11 3 C-10.01 2.67 -9.02 2.34 -8 2 C-7.67 1.34 -7.34 0.68 -7 0 C-4.0262656 -1.09036928 -3.11592499 -1.03864166 0 0 Z " fill="#5F8CE6" transform="translate(139,192)"/>
<path d="M0 0 C3.75081992 3.1531618 4.02009291 6.34856765 4.7265625 11.0390625 C5.30080155 19.35732531 4.5754497 27.69486104 4 36 C0.04 36 -3.92 36 -8 36 C-8 35.67 -8 35.34 -8 35 C-2.555 34.505 -2.555 34.505 3 34 C2.88639367 29.89522408 2.75963401 25.79159336 2.625 21.6875 C2.5940625 20.52025391 2.563125 19.35300781 2.53125 18.15039062 C2.49257813 17.03212891 2.45390625 15.91386719 2.4140625 14.76171875 C2.36693115 13.2142395 2.36693115 13.2142395 2.31884766 11.63549805 C2.17325371 8.77156764 2.17325371 8.77156764 0 6 C-0.125 2.8125 -0.125 2.8125 0 0 Z " fill="#A5B9E4" transform="translate(367,159)"/>
<path d="M0 0 C0.66 0 1.32 0 2 0 C2.980503 4.90251498 3 8.80942241 3 14 C9.93 14.33 16.86 14.66 24 15 C24 15.33 24 15.66 24 16 C22.81921875 16.06058594 21.6384375 16.12117188 20.421875 16.18359375 C18.8645723 16.26802582 17.30728121 16.35267249 15.75 16.4375 C14.58404297 16.49647461 14.58404297 16.49647461 13.39453125 16.55664062 C12.64042969 16.59853516 11.88632812 16.64042969 11.109375 16.68359375 C10.41811523 16.72025146 9.72685547 16.75690918 9.01464844 16.79467773 C6.95693834 16.94968007 6.95693834 16.94968007 4.85180664 17.57958984 C3 18 3 18 1.26171875 17.04296875 C-0.65360532 13.9416855 -0.31576923 10.83497036 -0.1875 7.3125 C-0.17396484 6.61060547 -0.16042969 5.90871094 -0.14648438 5.18554688 C-0.11120182 3.45670171 -0.05739583 1.72825235 0 0 Z " fill="#8FA9E9" transform="translate(507,168)"/>
<path d="M0 0 C3.74960478 -0.15304509 6.75924991 -0.07133336 10.375 1 C17.55393577 2.98039607 24.70048513 1.92692252 32 1 C28.20158994 4.79841006 22.35589478 4.88886108 17.1875 5.3125 C11.69979671 5.16808676 6.16556538 3.80174921 1 2 C0.67 1.34 0.34 0.68 0 0 Z " fill="#95ADEA" transform="translate(558,191)"/>
<path d="M0 0 C-0.37125 0.680625 -0.7425 1.36125 -1.125 2.0625 C-2.27878533 5.93592219 -1.32141227 8.25599857 0 12 C-1.65 12 -3.3 12 -5 12 C-6.32 9.36 -7.64 6.72 -9 4 C-5 0 -5 0 0 0 Z " fill="#6490F6" transform="translate(558,138)"/>
<path d="M0 0 C0 4.0333534 -1.60879918 5.83517538 -4 9 C-4.66 9 -5.32 9 -6 9 C-6.33 9.99 -6.66 10.98 -7 12 C-8.4375 13.6875 -8.4375 13.6875 -10 15 C-10.66 15 -11.32 15 -12 15 C-12.2475 15.639375 -12.495 16.27875 -12.75 16.9375 C-14 19 -14 19 -16.125 19.75 C-17.053125 19.87375 -17.053125 19.87375 -18 20 C-16.5735422 16.7413364 -14.83295838 14.5975146 -12.3046875 12.109375 C-11.23154297 11.04589844 -11.23154297 11.04589844 -10.13671875 9.9609375 C-9.39035156 9.23132813 -8.64398438 8.50171875 -7.875 7.75 C-7.12089844 7.00492188 -6.36679687 6.25984375 -5.58984375 5.4921875 C-3.73099228 3.6568658 -1.86762995 1.8263809 0 0 Z " fill="#8CA9DF" transform="translate(56,124)"/>
<path d="M0 0 C0.33 0.66 0.66 1.32 1 2 C2.32 1.67 3.64 1.34 5 1 C5.33 1.99 5.66 2.98 6 4 C13.26 4 20.52 4 28 4 C24.58591496 7.41408504 20.26949914 7.15422995 15.625 7.1875 C8.88573764 7.11503481 3.6475923 5.76506153 -2 2 C-1.34 1.34 -0.68 0.68 0 0 Z " fill="#92ABEE" transform="translate(283,189)"/>
<path d="M0 0 C0 0.66 0 1.32 0 2 C-4.95 2.33 -9.9 2.66 -15 3 C-15.66 4.98 -16.32 6.96 -17 9 C-17.99 8.01 -18.98 7.02 -20 6 C-21.32 6.99 -22.64 7.98 -24 9 C-24.66 8.67 -25.32 8.34 -26 8 C-18.70955979 -0.50551357 -10.65598742 -0.53878588 0 0 Z " fill="#90A9F1" transform="translate(253,154)"/>
<path d="M0 0 C0 0.33 0 0.66 0 1 C-1.65 1 -3.3 1 -5 1 C-5 1.66 -5 2.32 -5 3 C-7.71001104 5.71001104 -9.18151735 6.94988882 -13.0625 7.1875 C-14.031875 7.125625 -15.00125 7.06375 -16 7 C-18.26566343 7.43941523 -18.26566343 7.43941523 -20 8 C-14.99433389 1.99320067 -7.8922579 -2.17037092 0 0 Z " fill="#84A4EE" transform="translate(570,132)"/>
<path d="M0 0 C4.06225821 -0.11638426 8.1240863 -0.18731373 12.1875 -0.25 C13.33798828 -0.28351563 14.48847656 -0.31703125 15.67382812 -0.3515625 C16.78564453 -0.36445313 17.89746094 -0.37734375 19.04296875 -0.390625 C20.06414795 -0.41157227 21.08532715 -0.43251953 22.13745117 -0.45410156 C25.74928165 0.11886259 27.32246127 1.57064818 30 4 C30.99 4.66 31.98 5.32 33 6 C33 6.66 33 7.32 33 8 C29.57464832 6.99745805 26.92935714 5.95314504 23.9375 3.96875 C19.33523653 1.29013883 14.7798018 1.33263545 9.5625 1.25 C8.17901367 1.20552734 8.17901367 1.20552734 6.76757812 1.16015625 C4.51163399 1.09002327 2.25668881 1.0370525 0 1 C0 0.67 0 0.34 0 0 Z " fill="#255EBB" transform="translate(117,152)"/>
<path d="M0 0 C8.51304348 6.95869565 8.51304348 6.95869565 11 11 C10.75 13.8125 10.75 13.8125 10 16 C8.68 14.68 7.36 13.36 6 12 C6.33 11.01 6.66 10.02 7 9 C6.34 9 5.68 9 5 9 C5 8.34 5 7.68 5 7 C4.01 7.33 3.02 7.66 2 8 C1.34 5.36 0.68 2.72 0 0 Z " fill="#A1B6EC" transform="translate(131,126)"/>
<path d="M0 0 C0.33 0 0.66 0 1 0 C0.97679687 1.31355469 0.95359375 2.62710938 0.9296875 3.98046875 C0.91092349 5.71614013 0.89272396 7.45181768 0.875 9.1875 C0.85824219 10.05181641 0.84148438 10.91613281 0.82421875 11.80664062 C0.78906331 16.39442522 0.98995885 19.78539759 3 24 C2.625 26.3125 2.625 26.3125 2 28 C-2.29134693 18.48440464 -3.41183853 10.02227567 0 0 Z " fill="#86A4E8" transform="translate(542,151)"/>
<path d="M0 0 C3.47196006 2.68287823 4.0949599 5.82289183 5 10 C5.52822356 15.81045913 4.34635596 19.76582132 2 25 C1.34 25.33 0.68 25.66 0 26 C0 23.69 0 21.38 0 19 C0.99 19 1.98 19 3 19 C2.88485851 16.95775363 2.75742674 14.91619841 2.625 12.875 C2.55539062 11.73804688 2.48578125 10.60109375 2.4140625 9.4296875 C2.00556124 6.04606384 1.19032431 3.18387559 0 0 Z " fill="#93AAEB" transform="translate(264,162)"/>
<path d="M0 0 C2.0625 1.5625 2.0625 1.5625 4 4 C3.75 7.75 3.75 7.75 3 11 C3.99 11 4.98 11 6 11 C6.33 11.66 6.66 12.32 7 13 C7.99 13.33 8.98 13.66 10 14 C9.67 14.66 9.34 15.32 9 16 C7.686298 15.3566152 6.37407102 14.71021785 5.0625 14.0625 C3.96615234 13.52302734 3.96615234 13.52302734 2.84765625 12.97265625 C1 12 1 12 0 11 C-0.07226502 9.14712498 -0.0838122 7.29166122 -0.0625 5.4375 C-0.05347656 4.42558594 -0.04445313 3.41367188 -0.03515625 2.37109375 C-0.02355469 1.58863281 -0.01195312 0.80617187 0 0 Z " fill="#6391F3" transform="translate(409,162)"/>
<path d="M0 0 C0.99 0.33 1.98 0.66 3 1 C2.45276317 4.37462715 1.9451 6.08235 0 9 C-0.81984375 8.91621094 -1.6396875 8.83242187 -2.484375 8.74609375 C-4.10085938 8.59333984 -4.10085938 8.59333984 -5.75 8.4375 C-6.81734375 8.33308594 -7.8846875 8.22867188 -8.984375 8.12109375 C-11.64141204 8.01439926 -13.49960572 8.18069605 -16 9 C-16 7.35 -16 5.7 -16 4 C-15.67 4.66 -15.34 5.32 -15 6 C-14.16855469 5.98839844 -13.33710938 5.97679687 -12.48046875 5.96484375 C-11.39378906 5.95582031 -10.30710937 5.94679687 -9.1875 5.9375 C-8.10855469 5.92589844 -7.02960938 5.91429687 -5.91796875 5.90234375 C-3 6 -3 6 0 7 C0 4.69 0 2.38 0 0 Z " fill="#99B3ED" transform="translate(433,156)"/>
<path d="M0 0 C1.44197868 2.88395737 1.58833581 5.82430479 2 9 C5.5219721 9.08004482 8.61981469 9.04005702 12 8 C11.67 8.99 11.34 9.98 11 11 C7.72853515 12.56138095 5.81744617 13.18578322 2.25 12.375 C-0.39208506 10.76039247 -1.17296383 9.9773302 -2 7 C-1.45652174 1.45652174 -1.45652174 1.45652174 0 0 Z " fill="#96AEE7" transform="translate(384,135)"/>
<path d="M0 0 C1.14626322 0.97866338 2.29199788 1.95794587 3.4375 2.9375 C4.07558594 3.48277344 4.71367188 4.02804688 5.37109375 4.58984375 C6.26991149 5.36795695 7.15936528 6.15936528 8 7 C8.04063832 8.66617115 8.042721 10.33388095 8 12 C7.67 11.34 7.34 10.68 7 10 C6.05125 10.04125 5.1025 10.0825 4.125 10.125 C1 10 1 10 -1 8 C-0.4740625 7.13375 -0.4740625 7.13375 0.0625 6.25 C1.16577711 3.60213494 0.80156509 2.66814674 0 0 Z " fill="#4C7FD9" transform="translate(113,109)"/>
<path d="M0 0 C1.65 0 3.3 0 5 0 C3.43537634 4.22448388 0.58245016 6.40096753 -3 9 C-5.875 9.8125 -5.875 9.8125 -8 10 C-7.67 8.68 -7.34 7.36 -7 6 C-5.02 6 -3.04 6 -1 6 C-0.67 4.02 -0.34 2.04 0 0 Z " fill="#3D73C3" transform="translate(98,214)"/>
<path d="M0 0 C1.32 0.99 2.64 1.98 4 3 C3.01 3.33 2.02 3.66 1 4 C0.67 5.98 0.34 7.96 0 10 C0.99 10.66 1.98 11.32 3 12 C2.01 12.495 2.01 12.495 1 13 C-1.625 11.5625 -1.625 11.5625 -4 10 C-3.43454163 6.04179141 -2.19097652 3.3340947 0 0 Z " fill="#8EA9E9" transform="translate(409,181)"/>
<path d="M0 0 C0.33 0 0.66 0 1 0 C1 6.93 1 13.86 1 21 C2.32 21 3.64 21 5 21 C4.67 22.32 4.34 23.64 4 25 C3.34 25 2.68 25 2 25 C2 25.66 2 26.32 2 27 C1.34 27 0.68 27 0 27 C0 18.09 0 9.18 0 0 Z " fill="#265EB8" transform="translate(114,163)"/>
<path d="M0 0 C1.22589844 0.15275391 1.22589844 0.15275391 2.4765625 0.30859375 C3.41628906 0.43427734 3.41628906 0.43427734 4.375 0.5625 C3.385 0.8925 2.395 1.2225 1.375 1.5625 C1.375 2.5525 1.375 3.5425 1.375 4.5625 C-1.38764289 5.15982819 -3.78532769 5.5625 -6.625 5.5625 C-6.625 3.9125 -6.625 2.2625 -6.625 0.5625 C-4.10446405 -0.69776798 -2.7707902 -0.35624445 0 0 Z " fill="#2362C5" transform="translate(97.625,102.4375)"/>
<path d="M0 0 C2.475 0.495 2.475 0.495 5 1 C5.33 2.32 5.66 3.64 6 5 C6.99 5 7.98 5 9 5 C11.92427254 7.40822445 13.45925627 9.21479387 14 13 C10.12060491 11.41379873 7.66638913 8.90079013 4.75 5.9375 C3.85796875 5.03902344 2.9659375 4.14054688 2.046875 3.21484375 C0 1 0 1 0 0 Z " fill="#9DB4E8" transform="translate(47,192)"/>
<path d="M0 0 C1.2375 0.2475 1.2375 0.2475 2.5 0.5 C8.85824321 1.40832046 14.71338807 1.04776866 21 0 C21 0.66 21 1.32 21 2 C15.35600642 4.44064587 10.02248522 4.19289099 4 4 C4 3.34 4 2.68 4 2 C2.68 2 1.36 2 0 2 C0 1.34 0 0.68 0 0 Z " fill="#8DAAEA" transform="translate(565,181)"/>
<path d="M0 0 C0.99 0.33 1.98 0.66 3 1 C3.33 9.25 3.66 17.5 4 26 C6.31 26.33 8.62 26.66 11 27 C11 27.33 11 27.66 11 28 C8.03 28 5.06 28 2 28 C1.97494385 27.25838623 1.9498877 26.51677246 1.92407227 25.75268555 C1.80813868 22.39744672 1.68540015 19.04249056 1.5625 15.6875 C1.52318359 14.52025391 1.48386719 13.35300781 1.44335938 12.15039062 C1.40146484 11.03212891 1.35957031 9.91386719 1.31640625 8.76171875 C1.27974854 7.73006592 1.24309082 6.69841309 1.20532227 5.63549805 C1.09838758 2.89251742 1.09838758 2.89251742 0 0 Z " fill="#7694D8" transform="translate(357,166)"/>
<path d="M0 0 C0.77772405 2.33317216 1.42415568 4.61435923 2 7 C1.38125 7.2475 0.7625 7.495 0.125 7.75 C-2.35068687 9.20628639 -2.95125002 10.37812506 -4 13 C-4.66 12.01 -5.32 11.02 -6 10 C-5.21069203 7.51064409 -4.1651105 5.330221 -3 3 C-2.34 3 -1.68 3 -1 3 C-0.67 2.01 -0.34 1.02 0 0 Z " fill="#7399F0" transform="translate(549,140)"/>
<path d="M0 0 C0.67667998 1.24460783 1.34094719 2.49596896 2 3.75 C2.556875 4.79414063 2.556875 4.79414063 3.125 5.859375 C4 8 4 8 4 12 C3.01 12.33 2.02 12.66 1 13 C1 11.35 1 9.7 1 8 C-1.475 7.01 -1.475 7.01 -4 6 C-3.67 5.34 -3.34 4.68 -3 4 C-2.34 4 -1.68 4 -1 4 C-1 3.34 -1 2.68 -1 2 C-1.99 1.67 -2.98 1.34 -4 1 C-2 0 -2 0 0 0 Z " fill="#88A5E9" transform="translate(590,179)"/>
<path d="M0 0 C0.33 0 0.66 0 1 0 C0.78194509 6.21456504 -0.39269002 9.19212771 -4.625 13.75 C-6 15 -6 15 -7 15 C-7 13.02 -7 11.04 -7 9 C-6.01 9.495 -6.01 9.495 -5 10 C-4.01 7.36 -3.02 4.72 -2 2 C-1.34 2 -0.68 2 0 2 C0 1.34 0 0.68 0 0 Z " fill="#4072CC" transform="translate(153,169)"/>
<path d="M0 0 C0 0.66 0 1.32 0 2 C-0.78246094 2.04898438 -1.56492187 2.09796875 -2.37109375 2.1484375 C-3.38300781 2.22320312 -4.39492188 2.29796875 -5.4375 2.375 C-6.44683594 2.44460937 -7.45617187 2.51421875 -8.49609375 2.5859375 C-9.32238281 2.72257813 -10.14867187 2.85921875 -11 3 C-11.33 3.66 -11.66 4.32 -12 5 C-13.98 5 -15.96 5 -18 5 C-18 4.34 -18 3.68 -18 3 C-11.92122066 -0.24201565 -6.81598387 -0.33278764 0 0 Z " fill="#94AEEE" transform="translate(361,154)"/>
<path d="M0 0 C0.33 0 0.66 0 1 0 C1.36067893 4.44837341 1.36067893 4.44837341 -0.0625 6.625 C-2.86292421 8.61239782 -5.80805499 9.73526707 -9 11 C-8.4590069 7.21304827 -6.96567536 5.37254028 -4 3 C-2.68 3 -1.36 3 0 3 C0 2.01 0 1.02 0 0 Z " fill="#5989EA" transform="translate(63,120)"/>
<path d="M0 0 C1.98 0.66 3.96 1.32 6 2 C5.45660208 6.56454251 4.20536179 9.9728176 2 14 C1.01 13.67 0.02 13.34 -1 13 C-0.34 13 0.32 13 1 13 C0.67 12.01 0.34 11.02 0 10 C0.99 9.67 1.98 9.34 3 9 C2.01 6.03 1.02 3.06 0 0 Z " fill="#90ABEC" transform="translate(588,133)"/>
<path d="M0 0 C0.99 0 1.98 0 3 0 C4.6875 2.5 4.6875 2.5 6 5 C5.01 6.485 5.01 6.485 4 8 C3.67 7.34 3.34 6.68 3 6 C2.01 5.67 1.02 5.34 0 5 C0 5.66 0 6.32 0 7 C-0.99 7.33 -1.98 7.66 -3 8 C-3.33 7.01 -3.66 6.02 -4 5 C-2.68 4.67 -1.36 4.34 0 4 C0 2.68 0 1.36 0 0 Z " fill="#6290FB" transform="translate(430,178)"/>
<path d="M0 0 C0.66 0.33 1.32 0.66 2 1 C2 2.32 2 3.64 2 5 C2.99 5 3.98 5 5 5 C4.34 6.65 3.68 8.3 3 10 C2.01 10 1.02 10 0 10 C-1.36952673 7.26094655 -1.12621361 5.02912668 -1 2 C-0.67 1.34 -0.34 0.68 0 0 Z " fill="#3E77CA" transform="translate(114,153)"/>
<path d="M0 0 C1.32 0 2.64 0 4 0 C3.67 1.65 3.34 3.3 3 5 C1.68 5.33 0.36 5.66 -1 6 C-1.33 7.32 -1.66 8.64 -2 10 C-2.66 10 -3.32 10 -4 10 C-2.99806563 6.20696275 -2.18975773 3.28463659 0 0 Z " fill="#4C7BCF" transform="translate(36,144)"/>
<path d="M0 0 C1.32 1.32 2.64 2.64 4 4 C-4.25 4 -12.5 4 -21 4 C-21 3.67 -21 3.34 -21 3 C-14.4 3 -7.8 3 -1 3 C-0.67 2.01 -0.34 1.02 0 0 Z " fill="#285DB4" transform="translate(116,138)"/>
<path d="M0 0 C1.32 0.33 2.64 0.66 4 1 C2.61811547 4.21043882 1.07578097 6.04936365 -1.625 8.25 C-2.25664063 8.77078125 -2.88828125 9.2915625 -3.5390625 9.828125 C-4.02117187 10.21484375 -4.50328125 10.6015625 -5 11 C-4.49396008 8.83125748 -4.00016187 7.00032373 -3 5 C-2.01 5 -1.02 5 0 5 C0 3.35 0 1.7 0 0 Z " fill="#8EA9E1" transform="translate(128,197)"/>
<path d="M0 0 C2.35171131 0.59861742 4.6859378 1.26924352 7 2 C7.33 2.66 7.66 3.32 8 4 C8.99 4.33 9.98 4.66 11 5 C11 5.66 11 6.32 11 7 C11.99 7.33 12.98 7.66 14 8 C7.6682658 7.74156187 4.31723896 5.61905201 0 1 C0 0.67 0 0.34 0 0 Z " fill="#95AFEA" transform="translate(227,187)"/>
<path d="M0 0 C0 1.65 0 3.3 0 5 C-1.64666203 4.8864371 -3.29236082 4.75882619 -4.9375 4.625 C-6.31228516 4.52058594 -6.31228516 4.52058594 -7.71484375 4.4140625 C-8.84599609 4.20910156 -8.84599609 4.20910156 -10 4 C-10.33 3.34 -10.66 2.68 -11 2 C-9.35440244 1.66550467 -7.70851502 1.33243501 -6.0625 1 C-5.14597656 0.814375 -4.22945312 0.62875 -3.28515625 0.4375 C-1 0 -1 0 0 0 Z " fill="#82A0F1" transform="translate(252,183)"/>
<path d="M0 0 C0.33 0.99 0.66 1.98 1 3 C0.01 3 -0.98 3 -2 3 C-2.66 4.98 -3.32 6.96 -4 9 C-4.99 9 -5.98 9 -7 9 C-6.67 6.36 -6.34 3.72 -6 1 C-4.7934375 1.0309375 -4.7934375 1.0309375 -3.5625 1.0625 C-1.06645115 1.29633621 -1.06645115 1.29633621 0 0 Z " fill="#618DEE" transform="translate(127,199)"/>
<path d="M0 0 C0 0.66 0 1.32 0 2 C-3.40351338 4.03219488 -6.3232927 4.36891039 -10.25 4.625 C-11.32765625 4.69976562 -12.4053125 4.77453125 -13.515625 4.8515625 C-14.33546875 4.90054688 -15.1553125 4.94953125 -16 5 C-16 4.67 -16 4.34 -16 4 C-13.89748139 3.32815382 -11.79292237 2.66269032 -9.6875 2 C-8.51574219 1.62875 -7.34398437 1.2575 -6.13671875 0.875 C-3 0 -3 0 0 0 Z " fill="#95ADEA" transform="translate(259,191)"/>
<path d="M0 0 C5.19209404 -0.21192221 9.126739 0.4087311 14 2 C11 4 11 4 7.5625 3.75 C4.6232748 3.13121575 2.54301429 2.52580857 0 1 C0 0.67 0 0.34 0 0 Z " fill="#82A2EA" transform="translate(558,191)"/>
<path d="M0 0 C0 1.32 0 2.64 0 4 C-1.6875 4.6875 -1.6875 4.6875 -4 5 C-6.75 3.625 -6.75 3.625 -9 2 C-9 1.67 -9 1.34 -9 1 C-5.94152152 0.45627049 -3.11227195 0 0 0 Z " fill="#336AC5" transform="translate(47,169)"/>
<path d="M0 0 C7.57142857 2.85714286 7.57142857 2.85714286 10 7 C9.01 7.495 9.01 7.495 8 8 C8 7.34 8 6.68 8 6 C6.35 6 4.7 6 3 6 C3 5.01 3 4.02 3 3 C2.01 3 1.02 3 0 3 C0 2.01 0 1.02 0 0 Z " fill="#507EC9" transform="translate(103,102)"/>
<path d="M0 0 C3 1 3 1 4 3 C4.07033769 4.87379605 4.0843022 6.75001102 4.0625 8.625 C4.05347656 9.62789062 4.04445313 10.63078125 4.03515625 11.6640625 C4.02355469 12.43492187 4.01195312 13.20578125 4 14 C3.67 14 3.34 14 3 14 C2.01 9.38 1.02 4.76 0 0 Z " fill="#94AAE8" transform="translate(433,174)"/>
<path d="M0 0 C0.66 0.33 1.32 0.66 2 1 C1.67 1.66 1.34 2.32 1 3 C0.21625 2.690625 -0.5675 2.38125 -1.375 2.0625 C-5.89851578 0.73664193 -10.31431814 0.35188915 -15 0 C-15 -0.33 -15 -0.66 -15 -1 C-13.25181409 -1.22304441 -11.50129677 -1.4278645 -9.75 -1.625 C-8.77546875 -1.74101562 -7.8009375 -1.85703125 -6.796875 -1.9765625 C-3.82488601 -2.00146744 -2.49306434 -1.53334488 0 0 Z " fill="#94ADEA" transform="translate(585,143)"/>
<path d="M0 0 C6.40353322 -0.2361959 11.84629161 0.176679 18 2 C18 2.33 18 2.66 18 3 C11.64012196 3.20190089 6.14778871 2.6277833 0 1 C0 0.67 0 0.34 0 0 Z " fill="#A0BAEF" transform="translate(570,130)"/>
<path d="M0 0 C0.66 0.66 1.32 1.32 2 2 C4.42715206 2.67940467 4.42715206 2.67940467 7.125 3.125 C8.03507813 3.29257813 8.94515625 3.46015625 9.8828125 3.6328125 C10.58148437 3.75398437 11.28015625 3.87515625 12 4 C12 4.33 12 4.66 12 5 C8.04 5 4.08 5 0 5 C0 3.35 0 1.7 0 0 Z " fill="#A0B7F1" transform="translate(605,190)"/>
<path d="M0 0 C0.33 0 0.66 0 1 0 C1.33 1.65 1.66 3.3 2 5 C2.99 5 3.98 5 5 5 C4.34 6.98 3.68 8.96 3 11 C0.17661571 7.8083482 -0.62384955 5.23169259 -1 1 C-0.67 0.67 -0.34 0.34 0 0 Z " fill="#82A0ED" transform="translate(224,176)"/>
<path d="M0 0 C2.2477975 2.05233685 3.0022242 3.00667261 4 6 C4.03954234 8.33299825 4.04401732 10.66708189 4 13 C3.566875 12.1028125 3.566875 12.1028125 3.125 11.1875 C1.95257974 8.80672208 1.95257974 8.80672208 0 6 C-0.125 2.8125 -0.125 2.8125 0 0 Z " fill="#8FAAE4" transform="translate(367,159)"/>
<path d="M0 0 C3.96 0 7.92 0 12 0 C11.67 1.32 11.34 2.64 11 4 C10.67 3.67 10.34 3.34 10 3 C8.32115762 2.6068352 6.63149955 2.25914548 4.9375 1.9375 C4.01839844 1.76089844 3.09929687 1.58429688 2.15234375 1.40234375 C1.44207031 1.26957031 0.73179687 1.13679687 0 1 C0 0.67 0 0.34 0 0 Z " fill="#9EB7EF" transform="translate(183,131)"/>
<path d="M0 0 C1.65 0 3.3 0 5 0 C3.55746343 3.36591866 1.66735273 5.51047079 -1 8 C-1.33 6.35 -1.66 4.7 -2 3 C-1.01 3.33 -0.02 3.66 1 4 C0.67 2.68 0.34 1.36 0 0 Z " fill="#93ADEE" transform="translate(557,146)"/>
<path d="M0 0 C0 4.05345102 -1.58160112 5.8215329 -4 9 C-4.99 9.33 -5.98 9.66 -7 10 C-6.42424336 6.64749299 -5.40693737 5.06181371 -2.9375 2.75 C-2.38964844 2.22921875 -1.84179688 1.7084375 -1.27734375 1.171875 C-0.64505859 0.59179688 -0.64505859 0.59179688 0 0 Z " fill="#94ACDD" transform="translate(56,124)"/>
<path d="M0 0 C1.32 0 2.64 0 4 0 C4 0.99 4 1.98 4 3 C4.9590625 3.1546875 4.9590625 3.1546875 5.9375 3.3125 C6.618125 3.539375 7.29875 3.76625 8 4 C8.33 4.99 8.66 5.98 9 7 C6 7 6 7 4.39453125 5.46875 C3.87246094 4.8190625 3.35039063 4.169375 2.8125 3.5 C2.28269531 2.8503125 1.75289063 2.200625 1.20703125 1.53125 C0.80871094 1.0259375 0.41039063 0.520625 0 0 Z " fill="#5884D0" transform="translate(65,209)"/>
<path d="M0 0 C0.99 0.33 1.98 0.66 3 1 C2.67 1.33 2.34 1.66 2 2 C3.98 2.66 5.96 3.32 8 4 C8 4.33 8 4.66 8 5 C1.375 5.125 1.375 5.125 -2 4 C-2 3.01 -2 2.02 -2 1 C-1.34 0.67 -0.68 0.34 0 0 Z " fill="#6B8FED" transform="translate(240,190)"/>
<path d="M0 0 C0.99 0 1.98 0 3 0 C3.625 2.375 3.625 2.375 4 5 C3.34 5.66 2.68 6.32 2 7 C0.4375 5.1875 0.4375 5.1875 -1 3 C-0.67 2.01 -0.34 1.02 0 0 Z " fill="#84A2E9" transform="translate(138,135)"/>
<path d="M0 0 C1 2 1 2 0.4375 4.5625 C-1 7 -1 7 -4.125 7.8125 C-5.548125 7.9053125 -5.548125 7.9053125 -7 8 C-6.02133662 6.85373678 -5.04205413 5.70800212 -4.0625 4.5625 C-3.51722656 3.92441406 -2.97195312 3.28632812 -2.41015625 2.62890625 C-1.63204305 1.73008851 -0.84063472 0.84063472 0 0 Z " fill="#9DB4E9" transform="translate(64,116)"/>
<path d="M0 0 C0 3.15084005 -0.45473667 4.33871316 -2 7 C-2.66 7.66 -3.32 8.32 -4 9 C-4.66 8.67 -5.32 8.34 -6 8 C-4.55746343 4.63408134 -2.66735273 2.48952921 0 0 Z " fill="#4B7CC5" transform="translate(89,104)"/>
<path d="M0 0 C2.30143236 3.45214853 2.13833854 4.23479324 1.625 8.1875 C1.51414062 9.08855469 1.40328125 9.98960937 1.2890625 10.91796875 C1.19367188 11.60503906 1.09828125 12.29210937 1 13 C-0.32 13.33 -1.64 13.66 -3 14 C-2.67128906 13.43667969 -2.34257812 12.87335938 -2.00390625 12.29296875 C-0.88193615 9.73033666 -0.82286867 8.08657828 -0.9375 5.3125 C-0.99157949 3.87586654 -1.02041084 2.43750606 -1 1 C-0.67 0.67 -0.34 0.34 0 0 Z " fill="#8CABE9" transform="translate(256,169)"/>
<path d="M0 0 C0.33 1.32 0.66 2.64 1 4 C1.66 4 2.32 4 3 4 C3.33 6.97 3.66 9.94 4 13 C0.25474201 9.25474201 0.31090051 5.01729091 0 0 Z " fill="#4875BE" transform="translate(32,156)"/>
<path d="M0 0 C0.66 0.33 1.32 0.66 2 1 C1.67 2.65 1.34 4.3 1 6 C1.66 6 2.32 6 3 6 C2.67 6.66 2.34 7.32 2 8 C0.35 7.01 -1.3 6.02 -3 5 C-2.01 3.35 -1.02 1.7 0 0 Z " fill="#3B70C6" transform="translate(80,216)"/>
<path d="M0 0 C1.32 0 2.64 0 4 0 C4 0.99 4 1.98 4 3 C3.34 3 2.68 3 2 3 C2 3.66 2 4.32 2 5 C2.99 5.33 3.98 5.66 5 6 C4.34 6.66 3.68 7.32 3 8 C0.37613513 4.93882432 0 4.26826873 0 0 Z " fill="#5784E3" transform="translate(60,200)"/>
<path d="M0 0 C1.65 0.33 3.3 0.66 5 1 C3.68 2.32 2.36 3.64 1 5 C1.33 5.66 1.66 6.32 2 7 C0.68 6.67 -0.64 6.34 -2 6 C-1.34 4.02 -0.68 2.04 0 0 Z " fill="#789FF2" transform="translate(412,184)"/>
<path d="M0 0 C2.02045442 0.60183749 4.02111039 1.27306096 6 2 C6.33 2.66 6.66 3.32 7 4 C7.99 4.33 8.98 4.66 10 5 C9.67 5.66 9.34 6.32 9 7 C7.68176698 6.40844669 6.37052949 5.80128537 5.0625 5.1875 C4.33160156 4.85105469 3.60070312 4.51460937 2.84765625 4.16796875 C1 3 1 3 0 0 Z " fill="#99AFEA" transform="translate(409,171)"/>
<path d="M0 0 C0 0.66 0 1.32 0 2 C-0.68707031 1.98839844 -1.37414062 1.97679687 -2.08203125 1.96484375 C-2.98308594 1.95582031 -3.88414062 1.94679687 -4.8125 1.9375 C-5.70582031 1.92589844 -6.59914062 1.91429687 -7.51953125 1.90234375 C-10.13413791 1.88990033 -10.13413791 1.88990033 -13 3 C-13 2.01 -13 1.02 -13 0 C-11.39679026 -0.19551338 -9.79237014 -0.38111983 -8.1875 -0.5625 C-7.29417969 -0.66691406 -6.40085938 -0.77132812 -5.48046875 -0.87890625 C-3 -1 -3 -1 0 0 Z " fill="#9FB7EE" transform="translate(252,164)"/>
<path d="M0 0 C3.5 0.125 3.5 0.125 7 1 C8.4375 3.0625 8.4375 3.0625 9 5 C7.948125 4.5359375 7.948125 4.5359375 6.875 4.0625 C3.91063343 2.96697322 1.12301892 2.43577008 -2 2 C-1.34 1.34 -0.68 0.68 0 0 Z " fill="#A5BBEB" transform="translate(387,133)"/>
<path d="M0 0 C1.65 0 3.3 0 5 0 C2.525 3.465 2.525 3.465 0 7 C-1 3 -1 3 0 0 Z " fill="#5F87CD" transform="translate(140,185)"/>
<path d="M0 0 C2.97 0.33 5.94 0.66 9 1 C8.01 1.33 7.02 1.66 6 2 C6 2.99 6 3.98 6 5 C5.01 5 4.02 5 3 5 C3 3.68 3 2.36 3 1 C2.01 0.67 1.02 0.34 0 0 Z " fill="#2D6ECB" transform="translate(93,102)"/>
<path d="M0 0 C2.31 0.66 4.62 1.32 7 2 C5.68 3.65 4.36 5.3 3 7 C3 6.01 3 5.02 3 4 C2.01 3.67 1.02 3.34 0 3 C0 2.01 0 1.02 0 0 Z " fill="#819EF1" transform="translate(290,183)"/>
<path d="M0 0 C2.31 0 4.62 0 7 0 C6.67 0.99 6.34 1.98 6 3 C5.01 3.33 4.02 3.66 3 4 C2.01 3.34 1.02 2.68 0 2 C0 1.34 0 0.68 0 0 Z " fill="#7C9DED" transform="translate(256,188)"/>
<path d="M0 0 C0.33 0 0.66 0 1 0 C0.4140625 6.15234375 0.4140625 6.15234375 0 8 C-0.99 8.495 -0.99 8.495 -2 9 C-2 6.69 -2 4.38 -2 2 C-1.34 2 -0.68 2 0 2 C0 1.34 0 0.68 0 0 Z " fill="#4277BE" transform="translate(153,169)"/>
<path d="M0 0 C1 3 1 3 0 6 C-0.99 6.66 -1.98 7.32 -3 8 C-3.33 7.01 -3.66 6.02 -4 5 C-3.67 4.34 -3.34 3.68 -3 3 C-2.34 3 -1.68 3 -1 3 C-0.67 2.01 -0.34 1.02 0 0 Z " fill="#8EABEE" transform="translate(549,140)"/>
<path d="M0 0 C0.99 0 1.98 0 3 0 C2.75 1.875 2.75 1.875 2 4 C-0.0625 5.25 -0.0625 5.25 -2 6 C-2 3 -2 3 0 0 Z " fill="#3571DB" transform="translate(44,139)"/>
<path d="M0 0 C0.99 0 1.98 0 3 0 C2.25 1.9375 2.25 1.9375 1 4 C-1.125 4.75 -1.125 4.75 -3 5 C-1.125 1.125 -1.125 1.125 0 0 Z " fill="#7095D7" transform="translate(41,139)"/>
<path d="M0 0 C3.16115776 1.36983503 3.9927092 1.9890638 6 5 C5.01 5.495 5.01 5.495 4 6 C2 4.6875 2 4.6875 0 3 C0 2.01 0 1.02 0 0 Z " fill="#4B80E5" transform="translate(121,121)"/>
<path d="M0 0 C0.99 0.33 1.98 0.66 3 1 C1.35 2.65 -0.3 4.3 -2 6 C-2 4.35 -2 2.7 -2 1 C-1.34 0.67 -0.68 0.34 0 0 Z " fill="#88A5DE" transform="translate(136,191)"/>
<path d="M0 0 C0.66 0.33 1.32 0.66 2 1 C3 4 3 4 2.0625 6.1875 C1.5365625 7.0846875 1.5365625 7.0846875 1 8 C-1 5 -1 5 -0.625 2.3125 C-0.41875 1.549375 -0.2125 0.78625 0 0 Z " fill="#4179DE" transform="translate(137,184)"/>
<path d="M0 0 C1.65 0 3.3 0 5 0 C4.67 1.32 4.34 2.64 4 4 C2.68 4 1.36 4 0 4 C0 2.68 0 1.36 0 0 Z " fill="#1A5DD1" transform="translate(116,154)"/>
<path d="M0 0 C1.98 0.495 1.98 0.495 4 1 C4 1.99 4 2.98 4 4 C2.35 4.33 0.7 4.66 -1 5 C-0.67 3.35 -0.34 1.7 0 0 Z " fill="#5B8BF0" transform="translate(129,129)"/>
</svg>
