<svg width="16" height="16" viewBox="0 0 16 16" fill="none" xmlns="http://www.w3.org/2000/svg">
  <path d="M8 0C3.58 0 0 3.58 0 8C0 11.54 2.29 14.47 5.47 15.5C5.88 15.57 6.04 15.32 6.04 15.1C6.04 14.9 6.03 14.31 6.03 13.61C3.88 14.09 3.4 13.16 3.23 12.7C3.14 12.48 2.83 11.94 2.5 11.81C2.22 11.7 1.77 11.5 2.5 11.5C3.2 11.5 3.61 12.19 3.74 12.42C4.58 13.87 6.08 13.5 6.62 13.3C6.69 12.84 6.86 12.53 7.05 12.35C5.14 12.14 3.11 11.41 3.11 8.17C3.11 7.24 3.48 6.48 4.1 5.91C4.01 5.71 3.7 4.82 4.18 3.62C4.18 3.62 4.87 3.41 6.03 4.38C6.65 4.21 7.33 4.13 8 4.13C8.67 4.13 9.35 4.21 9.97 4.38C11.13 3.41 11.82 3.62 11.82 3.62C12.3 4.82 11.99 5.71 11.9 5.91C12.52 6.48 12.89 7.24 12.89 8.17C12.89 11.42 10.85 12.14 8.94 12.35C9.2 12.58 9.42 13.03 9.42 13.75C9.42 14.66 9.41 15.52 9.41 15.1C9.41 15.32 9.56 15.57 9.97 15.5C13.15 14.47 15.44 11.54 15.44 8C15.44 3.58 11.86 0 8 0Z" fill="white"/>
</svg>
